<?xml version="1.0" encoding="UTF-8" standalone="no"?>
<!-- Created with Inkscape (http://www.inkscape.org/) -->

<svg
   xmlns:dc="http://purl.org/dc/elements/1.1/"
   xmlns:cc="http://creativecommons.org/ns#"
   xmlns:rdf="http://www.w3.org/1999/02/22-rdf-syntax-ns#"
   xmlns:svg="http://www.w3.org/2000/svg"
   xmlns="http://www.w3.org/2000/svg"
   xmlns:sodipodi="http://sodipodi.sourceforge.net/DTD/sodipodi-0.dtd"
   xmlns:inkscape="http://www.inkscape.org/namespaces/inkscape"
   width="300mm"
   height="300mm"
   viewBox="0 0 300 300"
   version="1.1"
   id="svg2805"
   inkscape:version="0.92.4 (5da689c313, 2019-01-14)"
   sodipodi:docname="downvote_base.svg"
   inkscape:export-filename="downvote_base.png"
   inkscape:export-xdpi="84.669998"
   inkscape:export-ydpi="84.669998">
  <defs
     id="defs2799" />
  <sodipodi:namedview
     id="base"
     pagecolor="#ffffff"
     bordercolor="#666666"
     borderopacity="1.0"
     inkscape:pageopacity="0.0"
     inkscape:pageshadow="2"
     inkscape:zoom="0.12374369"
     inkscape:cx="-2419.5427"
     inkscape:cy="1021.1788"
     inkscape:document-units="mm"
     inkscape:current-layer="layer1"
     showgrid="false"
     inkscape:window-width="1366"
     inkscape:window-height="705"
     inkscape:window-x="0"
     inkscape:window-y="34"
     inkscape:window-maximized="1" />
  <metadata
     id="metadata2802">
    <rdf:RDF>
      <cc:Work
         rdf:about="">
        <dc:format>image/svg+xml</dc:format>
        <dc:type
           rdf:resource="http://purl.org/dc/dcmitype/StillImage" />
        <dc:title />
      </cc:Work>
    </rdf:RDF>
  </metadata>
  <g
     inkscape:label="Layer 1"
     inkscape:groupmode="layer"
     id="layer1"
     transform="translate(0,3)">
    <g
       id="g3447"
       transform="matrix(4.6396553,0,0,4.6396553,-123.96452,-302.68313)"
       style="fill:#000000;fill-opacity:1;stroke-width:0.21553326">
      <path
         style="fill:#000000;fill-opacity:1;stroke-width:0.21553326"
         d="m 57.363339,119.2414 c -3.965311,-0.33107 -7.824326,-1.69411 -10.972057,-3.87544 -1.669012,-1.1566 -3.781526,-3.14465 -4.967628,-4.67496 -2.44418,-3.15347 -3.979667,-6.834 -4.574228,-10.964332 -0.147007,-1.021235 -0.144193,-4.575201 0.0045,-5.630333 0.942136,-6.687303 4.459483,-12.267927 10.045396,-15.938029 3.155582,-2.073307 6.781028,-3.269762 10.77388,-3.555552 3.790192,-0.271285 7.675102,0.50961 11.239452,2.25921 2.325445,1.14147 4.088487,2.400326 5.933082,4.236365 3.387135,3.371425 5.474813,7.431293 6.318034,12.286563 0.165936,0.955457 0.19005,1.395019 0.192305,3.505443 0.0028,2.637403 -0.06579,3.292785 -0.556099,5.312125 -2.02353,8.33393 -8.758066,14.87598 -17.101829,16.61302 -1.899947,0.39555 -4.557989,0.57425 -6.334767,0.42592 z m 4.178248,-1.48177 c 3.858075,-0.45131 7.670854,-2.06649 10.767357,-4.5613 3.454226,-2.78303 6.104946,-6.995 7.146044,-11.355 0.439739,-1.84157 0.543664,-2.78028 0.543664,-4.910662 0,-2.088744 -0.104455,-3.073197 -0.507568,-4.783666 -1.94193,-8.239899 -8.521139,-14.429366 -16.92847,-15.925656 -1.43879,-0.256067 -4.561624,-0.319925 -6.053666,-0.123789 -1.574124,0.206925 -2.605529,0.4394 -4.050795,0.913029 -6.683228,2.19017 -11.874764,7.715358 -13.687696,14.567383 -0.497121,1.878882 -0.660688,3.206564 -0.659439,5.352699 0.0012,1.995707 0.09547,2.882834 0.49779,4.682502 1.156216,5.17206 4.425777,9.87654 8.926601,12.84424 2.822191,1.86086 6.098589,3.01535 9.566205,3.37079 0.840886,0.0862 3.455065,0.0446 4.439973,-0.0706 z m -2.693817,-3.67037 c -0.258982,-0.28617 -0.640277,-1.2731 -0.80682,-2.08835 -0.09298,-0.45512 -0.20492,-0.86336 -0.248767,-0.90721 -0.04985,-0.0498 -0.15054,-0.0418 -0.268732,0.0214 -0.314809,0.16848 -1.369743,0.50719 -1.579666,0.50719 -0.108261,0 -0.196837,-0.0404 -0.196837,-0.0897 0,-0.0493 0.2066,-0.6113 0.459112,-1.24883 1.037377,-2.61912 1.338719,-4.13327 1.159934,-5.82832 -0.144571,-1.37067 -0.300637,-1.43639 -1.17857,-0.49631 -0.73431,0.78629 -1.114013,1.35311 -1.592883,2.37787 -0.21776,0.46599 -0.423658,0.79795 -0.49493,0.79795 -0.06713,0 -0.223757,-0.13335 -0.34807,-0.29633 -0.124314,-0.16298 -0.256934,-0.29633 -0.294711,-0.29633 -0.105522,0 -0.757882,1.22538 -0.757882,1.42359 0,0.23337 0.119212,0.29491 0.705144,0.36399 0.673149,0.0794 0.903523,0.29744 0.903523,0.85527 0,0.28735 0.05446,0.48566 0.179999,0.65546 0.109973,0.14875 0.183613,0.38125 0.189286,0.59762 0.0076,0.29065 -0.03399,0.39137 -0.232087,0.56177 -0.315152,0.27108 -0.510887,0.23047 -0.544259,-0.11293 -0.03863,-0.39749 -0.203404,-0.49928 -0.597633,-0.36917 -0.506175,0.16705 -0.627254,0.10341 -0.794501,-0.41761 -0.164003,-0.51092 -0.33314,-0.73197 -0.48721,-0.63674 -0.142082,0.0878 -0.05451,0.44949 0.297744,1.22964 0.350185,0.77558 0.319598,1.03855 -0.131293,1.12873 -0.233521,0.0467 -0.26245,0.0802 -0.211454,0.24474 0.18833,0.6077 0.191494,0.60058 -0.24501,0.55138 -0.35754,-0.0403 -0.456776,-0.10396 -0.943572,-0.60534 -0.636415,-0.65548 -0.653403,-0.74778 -0.29001,-1.57574 0.272753,-0.62144 0.332561,-1.10067 0.137366,-1.10067 -0.179924,0 -0.285923,0.17193 -0.6013,0.97526 -0.16032,0.40838 -0.375812,0.83225 -0.478871,0.94196 -0.218934,0.23304 -0.57878,0.26041 -0.874678,0.0665 -0.192418,-0.12607 -0.210196,-0.12172 -0.345425,0.0847 -0.170516,0.26024 -0.319931,0.27475 -0.542055,0.0526 -0.140968,-0.14097 -0.163889,-0.2787 -0.157585,-0.94693 0.0065,-0.69165 0.0293,-0.80388 0.197157,-0.97174 0.18449,-0.18449 0.926556,-0.45636 1.245629,-0.45636 0.216045,0 0.627017,-0.2211 0.683219,-0.36756 0.05293,-0.13792 -0.09051,-0.30978 -0.258549,-0.30978 -0.06301,0 -0.254731,0.0952 -0.426054,0.21167 -0.523406,0.35566 -1.055021,0.25566 -1.149395,-0.21621 -0.05125,-0.25627 -0.06353,-0.26275 -0.392184,-0.20723 l -0.339275,0.0573 v -0.33135 c 0,-0.39397 0.240131,-0.6626 0.707706,-0.7917 0.169562,-0.0468 0.308294,-0.12317 0.308294,-0.16966 0,-0.0465 0.09352,-0.17805 0.207818,-0.29235 0.302325,-0.30233 0.644044,-0.26464 1.570182,0.17318 0.442383,0.20913 0.890914,0.38041 0.996736,0.38062 0.14874,2.5e-4 0.297644,-0.16276 0.656166,-0.71851 0.25507,-0.3954 0.463764,-0.77232 0.463764,-0.83761 0,-0.12596 -0.175508,-0.22119 -0.409091,-0.22197 -0.07768,-2.6e-4 -0.284117,-0.0401 -0.458742,-0.0887 -0.442385,-0.12286 -0.41358,-0.32614 0.08337,-0.58836 1.567592,-0.82715 3.639288,-3.33474 4.231791,-5.122188 0.20433,-0.616418 0.225024,-0.80043 0.230098,-2.046062 0.0051,-1.249797 -0.0342,-1.583056 -0.17055,-1.446702 -0.02702,0.02702 -0.426546,1.262092 -0.887838,2.74461 -0.921057,2.960132 -1.058853,3.249082 -1.701821,3.568632 -0.338191,0.16808 -0.440034,0.18337 -0.719103,0.10793 -0.178813,-0.0483 -0.414962,-0.15102 -0.524775,-0.22819 -0.221585,-0.15573 -0.515265,-0.73563 -0.518146,-1.02313 -10e-4,-0.10207 0.438595,-1.657191 0.976927,-3.45582 0.538334,-1.798628 0.966436,-3.334366 0.951341,-3.412751 -0.01829,-0.09499 -0.110354,-0.142517 -0.276053,-0.142517 h -0.248606 l -1.885856,5.334 c -1.037221,2.933698 -1.948292,5.473558 -2.024605,5.644138 -0.07631,0.17057 -0.269923,0.43727 -0.430247,0.59266 -0.262027,0.25397 -0.340909,0.28253 -0.78022,0.28253 -0.402226,0 -0.54253,-0.041 -0.792756,-0.23189 -0.35093,-0.26767 -0.52578,-0.70442 -0.464605,-1.16051 0.02319,-0.17288 0.90709,-2.78062 1.964226,-5.79498 1.057136,-3.014358 1.90103,-5.535468 1.87532,-5.602467 -0.02571,-0.067 -0.135026,-0.121815 -0.242927,-0.121815 -0.182152,0 -0.319588,0.337574 -1.921715,4.720167 -1.668258,4.563485 -2.068399,5.582065 -2.307401,5.873615 -0.184123,0.22461 -0.686778,0.49703 -0.914015,0.49538 -0.334013,-0.002 -0.888946,-0.29316 -1.084916,-0.56838 -0.41827,-0.5874 -0.455934,-0.44442 1.6777,-6.368787 l 1.963318,-5.451454 -0.198551,-0.153963 c -0.109203,-0.08468 -0.250559,-0.144725 -0.314123,-0.133437 -0.06865,0.01219 -0.740086,1.670432 -1.653857,4.084526 -0.846058,2.2352 -1.609334,4.170722 -1.696169,4.301165 -0.214874,0.32277 -0.555427,0.4825 -1.028704,0.4825 -0.708484,0 -1.220698,-0.50632 -1.220698,-1.206663 0,-0.163101 0.41425,-1.409909 0.938117,-2.823537 1.383723,-3.733913 3.136382,-8.550406 3.587235,-9.858102 0.486201,-1.410227 0.666707,-1.739315 1.134216,-2.067842 l 0.366465,-0.257521 h 2.765483 c 3.067906,0 3.413882,0.04424 3.78375,0.483801 0.42244,0.502041 0.222384,1.144253 -0.835104,2.68083 -0.716374,1.040922 -0.757932,1.12992 -0.617378,1.322138 0.1371,0.187496 1.309995,0.46524 1.958215,0.463711 1.140735,-0.0027 1.877407,-0.717411 2.49355,-2.41924 0.102901,-0.284218 0.174497,-0.627118 0.159104,-0.762 -0.02403,-0.210547 -0.0759,-0.255172 -0.366654,-0.315452 -0.827851,-0.171628 -1.001411,-0.249409 -1.3627,-0.610698 -0.608284,-0.608285 -0.467735,-0.81147 0.61981,-0.896035 0.742441,-0.05773 1.038634,-0.17842 0.700923,-0.285606 -0.102308,-0.03247 -0.850049,-0.01207 -1.661648,0.04533 -1.457873,0.103112 -2.269487,0.07415 -2.580079,-0.09208 -0.273376,-0.146307 -0.434396,-0.576063 -0.431082,-1.150547 0.0048,-0.834081 0.104112,-0.896609 0.509819,-0.321027 0.395431,0.561002 0.782469,0.704784 2.151913,0.799416 0.616941,0.04263 1.331261,0.137066 1.587377,0.209853 0.81674,0.232112 1.100667,0.255634 1.100667,0.09118 0,-0.520099 -0.465741,-0.689653 -1.820333,-0.662698 -0.5588,0.01112 -1.1684,0.03017 -1.354667,0.04233 l -0.338666,0.02211 0.01055,-0.59639 c 0.01209,-0.683837 0.207713,-1.156621 0.623233,-1.506257 0.286779,-0.24131 0.449259,-0.278421 1.567553,-0.358042 0.4191,-0.02984 1.197697,-0.167035 1.730216,-0.304878 0.741294,-0.191885 1.167926,-0.252304 1.820333,-0.257793 1.29716,-0.01091 1.939508,0.235518 2.2096,0.847696 0.133247,0.30201 0.185754,0.340754 0.524794,0.387224 0.580842,0.07961 1.096964,0.343984 1.290148,0.660847 0.137381,0.225334 0.171338,0.427532 0.171592,1.02176 3.38e-4,0.831019 -0.06135,0.895132 -0.550017,0.5715 -0.453781,-0.300528 -1.303777,-0.129331 -1.191755,0.240031 0.02351,0.07753 0.161271,0.960119 0.306126,1.961302 0.291039,2.011563 0.453718,2.514086 0.995887,3.076341 0.464714,0.481932 0.897486,0.67774 1.498409,0.677956 0.683148,2.54e-4 1.763985,-0.249699 1.945077,-0.449805 0.191281,-0.211362 0.135498,-0.358639 -0.438712,-1.158267 -0.593146,-0.825998 -1.095379,-1.752708 -1.169051,-2.157106 -0.07392,-0.405788 0.118294,-0.771541 0.500892,-0.953096 0.608704,-0.288849 2.411344,-0.370568 5.18142,-0.23489 1.129909,0.05534 1.21003,0.07098 1.500945,0.292868 0.169026,0.128922 0.400362,0.395038 0.514081,0.591369 0.286472,0.494581 4.19968,13.480856 4.19968,13.936954 0,0.632945 -0.306257,1.028905 -0.922819,1.193135 -0.477552,0.1272 -1.019651,-0.0586 -1.293622,-0.44335 -0.107796,-0.151378 -0.731751,-2.029347 -1.477662,-4.447436 -0.710096,-2.301978 -1.308874,-4.203207 -1.330621,-4.224952 -0.02175,-0.02175 -0.160818,0.02318 -0.309048,0.09983 -0.231598,0.119765 -0.26157,0.17126 -0.213072,0.366077 0.03104,0.124689 0.800453,2.644308 1.709805,5.599151 1.763289,5.72962 1.771157,5.76468 1.403842,6.25666 -0.304291,0.40757 -0.598317,0.56289 -1.065511,0.56289 -0.490527,0 -0.759588,-0.15448 -1.079351,-0.61972 -0.150236,-0.21859 -2.322578,-6.982653 -3.261085,-10.154107 -0.09578,-0.323653 -0.173123,-0.4445 -0.284496,-0.4445 -0.395858,0 -0.37763,0.07924 1.354007,5.886151 0.983082,3.296676 1.689502,5.808666 1.689317,6.007116 -6.77e-4,0.68927 -0.566075,1.22917 -1.287904,1.22975 -0.327282,2.5e-4 -0.453929,-0.0477 -0.702825,-0.26626 -0.166982,-0.14661 -0.355828,-0.36755 -0.419656,-0.49098 -0.06383,-0.12343 -0.82584,-2.58475 -1.693359,-5.469598 -0.867519,-2.884848 -1.616404,-5.369004 -1.664189,-5.520345 -0.09253,-0.29305 -0.279002,-0.35435 -0.515113,-0.169334 -0.121064,0.09487 -0.03088,0.452415 0.870239,3.450167 0.557299,1.85397 1.006448,3.4991 1.007878,3.69164 0.0049,0.66343 -0.588788,1.26136 -1.252463,1.26136 -0.491714,0 -0.857425,-0.24155 -1.167935,-0.77139 -0.122264,-0.20863 -0.589136,-1.56059 -1.037493,-3.004346 -0.448358,-1.443765 -0.853296,-2.624295 -0.899863,-2.6234 -0.132136,0.0025 -0.224831,0.986727 -0.172087,1.827136 0.0882,1.405325 0.344377,2.12305 1.266057,3.54707 0.947482,1.46389 1.906061,2.4796 2.764027,2.92878 0.647076,0.33876 0.592925,0.54954 -0.172255,0.6705 -0.239945,0.0379 -0.476184,0.10889 -0.524975,0.15768 -0.106577,0.10658 -0.01019,0.41083 0.381719,1.20497 0.350349,0.70991 0.454048,0.72359 1.578306,0.20825 1.005904,-0.46109 1.350152,-0.468 1.595922,-0.032 0.09051,0.16055 0.254306,0.28491 0.455768,0.34604 0.413219,0.12538 0.671779,0.4115 0.688239,0.76161 0.01286,0.27356 0.003,0.28248 -0.312586,0.28248 -0.289293,0 -0.341582,0.0333 -0.465926,0.29633 -0.18862,0.39907 -0.602945,0.44637 -1.142119,0.13039 -0.397865,-0.23316 -0.648424,-0.21545 -0.648424,0.0458 0,0.19351 0.338096,0.37608 0.846667,0.45719 0.452411,0.0722 1.017473,0.30554 1.161002,0.47953 0.06067,0.0735 0.109686,0.44244 0.119823,0.9018 0.01431,0.64868 -0.0084,0.80553 -0.136957,0.94764 -0.1972,0.2179 -0.439867,0.21836 -0.508868,9.5e-4 -0.06408,-0.20188 -0.218455,-0.21395 -0.549174,-0.0429 -0.482384,0.24945 -0.821968,-0.0556 -1.227829,-1.10311 -0.311716,-0.80449 -0.469095,-1.03144 -0.641409,-0.92495 -0.13996,0.0865 -0.03254,0.64707 0.219198,1.14384 0.333821,0.65877 0.289328,0.88239 -0.297379,1.4946 -0.365667,0.38157 -0.59956,0.55106 -0.855592,0.62 -0.473048,0.12738 -0.582243,0.0196 -0.389547,-0.38448 0.142458,-0.29873 0.142295,-0.29958 -0.07409,-0.38185 -0.119276,-0.0453 -0.248408,-0.0825 -0.286961,-0.0825 -0.09128,0 -0.17288,-0.21744 -0.17288,-0.46067 0,-0.10603 0.113841,-0.41724 0.25298,-0.69157 0.30568,-0.60267 0.399848,-1.02336 0.259929,-1.16125 -0.13494,-0.13299 -0.32089,0.11818 -0.441569,0.59642 -0.137856,0.54632 -0.307408,0.61738 -0.968885,0.40607 -0.236748,-0.0756 -0.457122,0.15113 -0.457122,0.47038 0,0.31821 -0.257449,0.33687 -0.554181,0.0401 -0.279408,-0.27941 -0.279351,-0.74827 1.69e-4,-1.15958 0.162233,-0.23875 0.197088,-0.37302 0.158521,-0.61068 -0.08916,-0.54943 0.345208,-0.8987 1.119421,-0.90012 0.29642,-5.1e-4 0.461433,-0.13182 0.461433,-0.36711 -3e-5,-0.218 -0.603096,-1.32669 -0.721672,-1.32669 -0.05134,0 -0.20285,0.11429 -0.336691,0.254 -0.133841,0.13971 -0.287829,0.25399 -0.342196,0.25399 -0.05437,0 -0.297509,-0.40957 -0.540316,-0.91016 -0.653736,-1.3478 -1.970158,-2.95734 -2.358484,-2.88364 -0.23325,0.0443 -0.343149,0.67735 -0.34993,2.0158 -0.0048,0.93817 0.03225,1.3874 0.156912,1.90501 0.180891,0.75106 0.930142,2.96439 1.243162,3.67236 0.110652,0.25027 0.201185,0.50746 0.201185,0.5715 0,0.18267 -0.436636,0.14077 -1.075648,-0.1032 -0.316443,-0.12081 -0.675578,-0.23877 -0.798078,-0.26212 -0.215872,-0.0412 -0.225816,-0.0246 -0.32311,0.53716 -0.189877,1.09638 -0.754094,2.48145 -1.058405,2.59821 -0.06353,0.0244 -0.175105,-0.0215 -0.247936,-0.10199 z m -11.078167,-9.00742 c 0.09762,-0.11914 3.913345,-10.901722 3.913345,-11.058445 0,-0.164361 -0.434278,-0.293065 -0.551261,-0.163373 -0.116842,0.129536 -3.857948,10.885458 -3.854069,11.080698 0.0015,0.0737 0.02806,0.15946 0.05911,0.1905 0.09242,0.0924 0.339802,0.0642 0.432877,-0.0494 z m 23.047769,-0.0209 c 0.08035,-0.0968 0.0834,-0.21167 0.01294,-0.48683 -0.231494,-0.904 -3.326778,-10.862411 -3.398585,-10.934218 -0.106785,-0.106786 -0.508777,0.07521 -0.508777,0.230339 0,0.194034 3.390296,11.092769 3.486843,11.209109 0.119585,0.14409 0.278688,0.13691 0.407582,-0.0184 z m 2.777308,-1.92223 c 0.05588,-0.0559 0.1016,-0.16532 0.1016,-0.24322 0,-0.10595 -2.545162,-8.518313 -3.142492,-10.386675 -0.09561,-0.299044 -0.268217,-0.347745 -0.529976,-0.149531 -0.152215,0.115265 -0.09646,0.321448 1.344305,4.971475 0.826709,2.668172 1.556344,5.030431 1.621413,5.249451 0.111222,0.37439 0.302477,0.6601 0.441865,0.6601 0.03393,0 0.107405,-0.0457 0.163285,-0.1016 z m -28.613296,-0.0945 c 0.110049,-0.1326 3.738231,-10.074502 3.738231,-10.243456 0,-0.140588 -0.422367,-0.349056 -0.513887,-0.253639 -0.102055,0.106403 -3.719446,10.159755 -3.719446,10.336985 0,0.0873 0.0254,0.18408 0.05644,0.21512 0.09419,0.0942 0.340464,0.0633 0.438657,-0.055 z m 7.788092,-1.52251 c 0.125673,-0.15142 2.132589,-6.761316 2.079147,-6.847787 -0.02365,-0.03827 -0.15587,-0.06958 -0.293821,-0.06958 -0.179303,0 -0.27426,0.05432 -0.333034,0.1905 -0.119596,0.277111 -1.946153,6.404747 -1.946153,6.528847 0,0.25991 0.332013,0.39304 0.493861,0.19802 z m 13.629538,-0.11786 c 0.01452,-0.10202 -0.416006,-1.626023 -0.956723,-3.386667 -0.540717,-1.760644 -1.00284,-3.267846 -1.026938,-3.349338 -0.05706,-0.192962 -0.524486,-0.203504 -0.597407,-0.01347 -0.05372,0.139999 1.956271,6.682025 2.112468,6.875555 0.136288,0.16886 0.438184,0.0876 0.4686,-0.12608 z M 42.653418,99.409168 c 0.0651,-0.104775 0.831697,-2.012195 1.703539,-4.238713 1.526217,-3.89767 1.579648,-4.05431 1.43679,-4.212166 -0.08161,-0.09017 -0.209146,-0.163692 -0.283421,-0.163373 -0.09962,4.23e-4 -0.552416,1.072061 -1.726104,4.085166 -0.875083,2.246523 -1.613004,4.170515 -1.639826,4.275538 -0.05314,0.208061 0.09352,0.444048 0.275968,0.444048 0.06307,0 0.167949,-0.08572 0.233054,-0.1905 z m 33.227262,0.0042 c 0.05588,-0.05588 0.1016,-0.160859 0.1016,-0.233287 0,-0.203934 -2.602721,-8.736368 -2.692233,-8.82588 -0.04915,-0.04915 -0.164136,-0.0048 -0.303078,0.116953 l -0.223883,0.196147 1.299736,4.23479 c 0.714855,2.329134 1.345264,4.319859 1.400909,4.423833 0.112309,0.209851 0.262949,0.241444 0.416949,0.08744 z M 58.830356,81.852943 c 0.204746,-0.07857 0.159525,-0.281732 -0.08325,-0.374037 -0.281568,-0.107052 -0.312614,-0.104881 -0.504277,0.03527 -0.313494,0.229233 0.160604,0.502598 0.58753,0.33877 z"
         id="path3451"
         inkscape:connector-curvature="0" />
      <path
         style="fill:#000000;fill-opacity:1;stroke-width:0.21553326"
         d="m 57.482614,119.108 c -1.236659,-0.12293 -2.075172,-0.24466 -2.960029,-0.4297 -6.755945,-1.4128 -12.356571,-5.77495 -15.418488,-12.00897 -1.165513,-2.37296 -1.899739,-4.93209 -2.158802,-7.52445 -0.145167,-1.452644 -0.05952,-4.466747 0.164043,-5.772837 0.799819,-4.67272 2.800145,-8.621895 6.05989,-11.963833 3.136454,-3.215538 7.159211,-5.411689 11.477053,-6.265689 1.699031,-0.33604 2.363733,-0.392673 4.529667,-0.385928 1.735093,0.0054 2.317733,0.03923 3.232025,0.187615 6.354503,1.03134 11.656426,4.430432 15.222091,9.758964 0.732687,1.094927 1.833984,3.265171 2.290127,4.512981 2.651052,7.252136 1.401772,15.274227 -3.331094,21.390187 -0.763852,0.98707 -2.506048,2.75556 -3.527817,3.58105 -3.080847,2.48905 -6.828232,4.13679 -10.746917,4.72547 -1.056732,0.15874 -4.001477,0.27768 -4.831749,0.19514 z m 4.614333,-1.26133 c 3.754521,-0.57693 7.362466,-2.16483 10.295887,-4.53131 1.057013,-0.85273 2.632731,-2.49007 3.479931,-3.61603 2.260914,-3.00484 3.617669,-6.29245 4.149333,-10.054445 0.205193,-1.451925 0.182128,-4.266178 -0.04721,-5.760217 -0.921271,-6.00169 -4.208678,-11.185293 -9.226434,-14.548298 -1.158023,-0.776131 -3.240572,-1.834822 -4.50284,-2.289077 -3.477974,-1.251627 -7.461173,-1.571075 -11.091333,-0.889512 -4.142504,0.777755 -8.002506,2.819819 -11.01291,5.826179 -3.359126,3.354613 -5.413034,7.539951 -6.047885,12.324042 -0.17783,1.340084 -0.178091,3.905985 -5.08e-4,5.249333 1.078951,8.163045 6.638783,14.893185 14.418807,17.453875 1.245508,0.40994 3.184701,0.82798 4.420522,0.95295 1.133422,0.11462 4.092235,0.0473 5.164666,-0.11749 z m -3.279823,-4.04676 c -0.262673,-0.4452 -0.507756,-1.16252 -0.646146,-1.89117 -0.148689,-0.78287 -0.201073,-0.93741 -0.335077,-0.98851 -0.05461,-0.0208 -0.365987,0.0704 -0.691953,0.20268 -0.605258,0.24565 -1.120499,0.38081 -1.189313,0.312 -0.02113,-0.0211 0.11377,-0.41244 0.299777,-0.86959 0.475538,-1.16873 1.07138,-3.02769 1.190251,-3.71346 0.147772,-0.8525 0.07175,-3.06139 -0.117745,-3.42103 -0.07974,-0.15134 -0.206185,-0.27516 -0.280985,-0.27516 -0.54016,0 -1.753612,1.4322 -2.49736,2.94757 l -0.430477,0.87708 -0.324801,-0.31716 c -0.270015,-0.26366 -0.346251,-0.29935 -0.451968,-0.21161 -0.18328,0.1521 -0.811712,1.32349 -0.811712,1.51301 0,0.26947 0.297755,0.45408 0.834456,0.51736 0.662073,0.0781 0.77421,0.17929 0.77421,0.69888 0,0.2855 0.05397,0.48939 0.171676,0.6486 0.268424,0.36306 0.308175,0.80508 0.09186,1.0214 -0.223084,0.22309 -0.348197,0.22821 -0.348197,0.0143 0,-0.0905 -0.09038,-0.26969 -0.200855,-0.39812 -0.194608,-0.22625 -0.21153,-0.22999 -0.544038,-0.12025 -0.188751,0.0623 -0.394822,0.0934 -0.457936,0.0692 -0.06311,-0.0242 -0.182081,-0.25763 -0.26437,-0.51868 -0.150094,-0.47615 -0.359089,-0.68671 -0.592658,-0.59708 -0.286224,0.10984 -0.178361,0.73757 0.274801,1.59924 0.274494,0.52195 0.195193,0.8076 -0.224201,0.8076 -0.253416,0 -0.323909,0.18973 -0.190322,0.51224 0.05814,0.14035 0.08853,0.27237 0.06753,0.29336 -0.123707,0.12371 -0.642673,-0.17866 -1.047758,-0.61046 -0.535258,-0.57056 -0.567699,-0.75194 -0.247506,-1.38381 0.427036,-0.84271 0.34083,-1.51528 -0.164697,-1.28495 -0.146881,0.0669 -0.2826,0.30362 -0.508734,0.88724 -0.456548,1.17828 -0.635784,1.35766 -1.110506,1.11137 -0.321621,-0.16686 -0.505871,-0.14638 -0.655194,0.0728 -0.124622,0.18296 -0.13591,0.18453 -0.285102,0.0397 -0.128998,-0.12523 -0.151354,-0.26163 -0.131823,-0.80434 0.01294,-0.35944 0.04172,-0.71333 0.06397,-0.78643 0.05536,-0.18189 0.50763,-0.38456 1.132526,-0.50751 0.609629,-0.11993 0.938205,-0.34331 0.938205,-0.63783 0,-0.35019 -0.364091,-0.42357 -0.808738,-0.16299 -0.200428,0.11746 -0.481156,0.21356 -0.623839,0.21356 -0.216315,0 -0.284679,-0.0528 -0.411406,-0.3175 -0.139841,-0.29214 -0.177796,-0.31593 -0.475132,-0.29784 -0.312574,0.019 -0.321254,0.0121 -0.26521,-0.2112 0.0824,-0.32831 0.188143,-0.42902 0.570866,-0.54368 0.19472,-0.0583 0.395291,-0.19262 0.474835,-0.31789 0.07574,-0.11929 0.176693,-0.24488 0.224335,-0.27909 0.201197,-0.14448 0.663703,-0.0414 1.418582,0.3162 0.442364,0.20955 0.878975,0.381 0.970245,0.381 0.09127,0 0.243228,-0.0857 0.337686,-0.1905 0.321727,-0.35687 0.967313,-1.43658 0.940918,-1.57364 -0.03396,-0.17636 -0.37843,-0.34933 -0.702142,-0.35257 -0.270069,-0.003 -0.567785,-0.15693 -0.421891,-0.21855 0.331594,-0.14005 1.285558,-0.85013 1.805235,-1.34371 0.968779,-0.92015 2.258526,-2.71872 2.63279,-3.67147 0.301261,-0.766903 0.455183,-1.893455 0.395439,-2.894225 -0.05753,-0.963495 -0.1369,-1.369067 -0.2771,-1.415801 -0.121125,-0.04037 -0.156908,0.06015 -1.090987,3.064861 -0.448425,1.442475 -0.866233,2.721145 -0.928461,2.841475 -0.189817,0.36707 -0.64703,0.75373 -0.960881,0.81261 -0.613576,0.11511 -1.281148,-0.47474 -1.281148,-1.13198 0,-0.13656 0.439337,-1.711953 0.976304,-3.500874 0.536967,-1.788921 0.965592,-3.328784 0.9525,-3.421918 -0.02709,-0.192735 -0.60349,-0.385965 -0.740241,-0.248159 -0.04302,0.04336 -0.934734,2.505324 -1.981581,5.471044 -1.046847,2.965717 -1.967974,5.528387 -2.046951,5.694817 -0.07897,0.16643 -0.256264,0.39741 -0.393974,0.51328 -0.466805,0.39279 -1.348036,0.2251 -1.646848,-0.31338 -0.25224,-0.45456 -0.160127,-0.77923 1.838183,-6.479095 1.377316,-3.928581 1.929839,-5.607263 1.875062,-5.69684 -0.12847,-0.210089 -0.509601,-0.308286 -0.640331,-0.164979 -0.06154,0.06746 -0.946762,2.404683 -1.967169,5.193839 -2.058265,5.626015 -2.088698,5.688865 -2.799555,5.782335 -0.663824,0.0873 -1.299399,-0.46998 -1.299399,-1.13929 0,-0.13796 0.878153,-2.6849 1.951449,-5.65987 l 1.951449,-5.409035 -0.279282,-0.235781 c -0.153605,-0.12968 -0.351374,-0.22493 -0.439486,-0.211667 -0.12804,0.01927 -0.429992,0.73807 -1.503939,3.580115 -0.739054,1.9558 -1.443488,3.817544 -1.565408,4.13721 -0.257983,0.676411 -0.613571,1.120388 -0.957913,1.196018 -0.371936,0.0817 -0.89464,-0.0963 -1.140355,-0.38832 -0.391471,-0.46524 -0.338212,-0.698743 0.960752,-4.212278 1.769375,-4.785938 2.734276,-7.442586 3.265414,-8.990617 0.540192,-1.574423 0.756038,-1.949064 1.264835,-2.195369 0.333377,-0.161385 0.51458,-0.172311 2.857659,-0.172311 3.364514,0 3.808599,0.09617 3.863322,0.836606 0.03497,0.473122 -0.239048,1.055309 -1.046013,2.222411 -0.91033,1.3166 -0.84031,1.517771 0.63134,1.81389 1.829548,0.368134 2.803637,-0.307921 3.532867,-2.451947 0.109987,-0.323374 0.199975,-0.657479 0.199975,-0.742456 0,-0.263775 -0.306259,-0.483039 -0.75848,-0.543028 -0.45975,-0.06099 -0.967874,-0.345288 -1.217356,-0.681122 -0.258196,-0.347563 -0.142529,-0.432275 0.678912,-0.497224 0.75846,-0.05997 1.127591,-0.199016 1.127591,-0.424748 0,-0.06878 0.05797,-0.125049 0.128815,-0.125049 0.197888,0 0.332526,-0.363447 0.215584,-0.581957 -0.164215,-0.306837 -0.460744,-0.433701 -1.235126,-0.528423 -0.669983,-0.08195 -1.292376,-0.04783 -2.090986,0.114618 -0.150977,0.03071 -0.190812,-0.64927 -0.06318,-1.078571 0.130397,-0.438623 0.373833,-0.775991 0.670709,-0.929512 0.131043,-0.06777 0.705691,-0.161224 1.284492,-0.208906 0.599183,-0.04936 1.373434,-0.176993 1.809364,-0.298265 0.990567,-0.275568 1.875177,-0.347875 2.652301,-0.216796 0.693128,0.116911 1.035163,0.34298 1.268423,0.838368 0.131,0.27821 0.18372,0.310599 0.604027,0.371088 0.904644,0.13019 1.245424,0.485775 1.32704,1.384692 0.0649,0.714793 0.0039,0.785547 -0.469182,0.5442 -0.403486,-0.205844 -0.688955,-0.217903 -1.026481,-0.04336 -0.314905,0.162843 -0.315418,0.128356 0.03654,2.455869 0.181697,1.201556 0.347229,2.012662 0.465156,2.279256 0.441723,0.998587 1.232399,1.571572 2.164963,1.568897 0.600923,-0.0017 1.533265,-0.184949 1.896242,-0.372652 0.511644,-0.264581 0.464434,-0.420608 -0.578501,-1.911878 -0.53095,-0.759195 -0.847531,-1.453337 -0.847531,-1.858316 0,-0.165692 0.07998,-0.3106 0.250754,-0.454294 0.404416,-0.340293 1.108317,-0.409662 3.86026,-0.380426 2.398959,0.02549 2.457366,0.03021 2.768902,0.223905 0.175036,0.108827 0.415548,0.363896 0.534469,0.566819 0.12633,0.215567 1.05979,3.159764 2.245331,7.081935 1.551222,5.131963 2.016172,6.773165 1.974168,6.968514 -0.09798,0.455688 -0.292308,0.731407 -0.608646,0.863577 -0.602801,0.25187 -1.294263,-0.0362 -1.534344,-0.639161 -0.04881,-0.122588 -0.644965,-2.032636 -1.324791,-4.244553 -0.679826,-2.211917 -1.285623,-4.07272 -1.346216,-4.135117 -0.09201,-0.09475 -0.151288,-0.09219 -0.359694,0.01558 -0.520673,0.26925 -0.58967,-0.058 1.241105,5.886594 0.939105,3.049317 1.69656,5.652147 1.696385,5.829267 -5.92e-4,0.6394 -0.507125,1.12434 -1.174315,1.12434 -0.385539,0 -0.777454,-0.27749 -1.000766,-0.70858 -0.07552,-0.1458 -0.851242,-2.563 -1.723819,-5.371558 -0.872576,-2.808559 -1.607741,-5.12771 -1.6337,-5.153669 -0.07378,-0.07378 -0.452931,0.04442 -0.593555,0.185039 -0.09062,0.09062 -0.107573,0.193622 -0.05921,0.359707 0.03727,0.128 0.7966,2.676189 1.687392,5.662645 1.818424,6.096426 1.824321,6.125696 1.328234,6.593566 -0.620031,0.58477 -1.418664,0.41762 -1.824339,-0.38182 -0.08271,-0.16298 -0.881191,-2.73473 -1.77441,-5.714998 -0.893219,-2.980267 -1.673127,-5.468837 -1.73313,-5.530157 -0.166467,-0.170122 -0.676881,-0.01456 -0.710707,0.216613 -0.01447,0.09888 0.414157,1.651416 0.9525,3.450081 0.581568,1.943081 0.978301,3.414341 0.977559,3.625221 -0.0016,0.45478 -0.141163,0.72483 -0.49934,0.9662 -0.555632,0.37444 -1.127853,0.20136 -1.620193,-0.49007 -0.09651,-0.13553 -0.573767,-1.53008 -1.060568,-3.098992 -0.486801,-1.568908 -0.901951,-2.869418 -0.922554,-2.890021 -0.0206,-0.0206 -0.09061,-0.01706 -0.15558,0.0079 -0.157175,0.06031 -0.228168,0.633861 -0.22638,1.828909 0.0026,1.719294 0.251213,2.463954 1.406456,4.212214 0.758027,1.14714 1.874415,2.33154 2.550146,2.70552 0.466892,0.25839 0.526584,0.40036 0.183962,0.43752 -0.456288,0.0495 -0.831934,0.19986 -0.880348,0.3524 -0.05383,0.1696 0.533681,1.5343 0.775613,1.80163 0.208266,0.23014 0.449676,0.18782 1.305937,-0.22894 0.734565,-0.35752 1.188389,-0.46077 1.389719,-0.3162 0.04764,0.0342 0.148594,0.1598 0.224336,0.27909 0.08049,0.12676 0.280703,0.25973 0.481815,0.31998 0.36077,0.10809 0.604227,0.36388 0.604227,0.63484 0,0.12837 -0.04538,0.15169 -0.227467,0.11688 -0.32576,-0.0623 -0.429166,8.5e-4 -0.537017,0.32761 -0.132391,0.40115 -0.397824,0.45267 -0.879072,0.17064 -0.406322,-0.23812 -0.71814,-0.28027 -0.879511,-0.1189 -0.298578,0.29858 0.0776,0.68361 0.813711,0.83287 0.264929,0.0537 0.637616,0.16544 0.828195,0.24827 l 0.346505,0.15061 0.05237,0.74205 c 0.05234,0.74171 -0.01332,1.05727 -0.219991,1.05727 -0.05701,0 -0.151242,-0.0762 -0.209405,-0.16934 -0.125047,-0.20023 -0.346806,-0.2176 -0.574966,-0.045 -0.429614,0.32494 -0.736809,0.0411 -1.172469,-1.08325 -0.246191,-0.63539 -0.371763,-0.85347 -0.53399,-0.92739 -0.179955,-0.082 -0.230868,-0.0715 -0.335872,0.0694 -0.161963,0.21721 -0.104751,0.55315 0.220342,1.29385 0.153936,0.35073 0.238478,0.6574 0.206483,0.74901 -0.09534,0.27297 -0.902255,1.03926 -1.196673,1.13643 -0.335136,0.1106 -0.405122,0.0696 -0.28003,-0.16416 0.1703,-0.31821 0.112244,-0.51061 -0.176668,-0.58547 -0.449422,-0.11646 -0.46623,-0.25326 -0.124195,-1.01079 0.398269,-0.88208 0.449673,-1.14118 0.26336,-1.32749 -0.218103,-0.21811 -0.46957,-0.008 -0.676016,0.56412 -0.09352,0.2593 -0.197911,0.49932 -0.23197,0.53338 -0.03406,0.0341 -0.213443,-0.006 -0.398633,-0.0899 -0.316669,-0.14279 -0.349645,-0.14335 -0.554081,-0.009 -0.119556,0.0783 -0.239888,0.255 -0.267406,0.39258 -0.02752,0.13759 -0.07384,0.24958 -0.102948,0.24887 -0.10592,-0.003 -0.241538,-0.13008 -0.342765,-0.32221 -0.11748,-0.22297 -0.01984,-0.61319 0.219657,-0.87783 0.09508,-0.10506 0.134684,-0.28606 0.124647,-0.56965 -0.02119,-0.59855 0.106101,-0.70162 0.986032,-0.79849 0.716922,-0.0789 0.777728,-0.36643 0.271462,-1.28356 -0.474338,-0.85929 -0.528614,-0.89187 -0.860735,-0.51673 -0.148887,0.16817 -0.296364,0.30576 -0.327725,0.30576 -0.03136,0 -0.271322,-0.43078 -0.533249,-0.9573 -0.539442,-1.08437 -1.596552,-2.44642 -2.113863,-2.72363 -0.311872,-0.16713 -0.312288,-0.16712 -0.484933,0.006 -0.253822,0.25382 -0.364932,1.14285 -0.31121,2.49007 0.05327,1.33591 0.254026,2.13812 1.084286,4.33279 0.28198,0.74537 0.50027,1.36727 0.485086,1.382 -0.04351,0.0422 -1.373104,-0.38826 -1.462706,-0.47355 -0.116953,-0.11134 -0.435937,-0.0937 -0.530691,0.0293 -0.04484,0.0582 -0.146736,0.44662 -0.226442,0.86314 -0.159468,0.83335 -0.564973,1.89651 -0.806847,2.1154 -0.146155,0.13227 -0.164438,0.12407 -0.323077,-0.1448 z m -11.062684,-8.5077 c 0.05124,-0.0342 0.140465,-0.15197 0.198283,-0.26169 0.20511,-0.3892 3.905563,-10.967476 3.881078,-11.094616 -0.01369,-0.07109 -0.169702,-0.184375 -0.346692,-0.251737 -0.27654,-0.105253 -0.337264,-0.105719 -0.43175,-0.0033 -0.102898,0.111511 -3.944411,11.035383 -3.944411,11.216473 0,0.0458 0.05931,0.16802 0.131801,0.27151 0.132511,0.18919 0.338683,0.2389 0.511691,0.12338 z m 23.106383,-0.0524 c 0.107831,-0.0789 0.156366,-0.21038 0.148394,-0.40217 -0.01403,-0.33746 -3.352852,-11.227108 -3.48184,-11.356096 -0.120562,-0.120562 -0.72174,0.110829 -0.756468,0.291162 -0.01937,0.100585 2.095589,7.087044 3.29377,10.880484 0.103277,0.32698 0.387701,0.70379 0.531231,0.70379 0.05757,0 0.17678,-0.0527 0.264913,-0.11717 z m 2.948298,-2.17809 c 0.05368,-0.15411 -0.192729,-1.06105 -1.032639,-3.800738 -1.785302,-5.823442 -2.189741,-7.117096 -2.241094,-7.168448 -0.07649,-0.07649 -0.440031,0.03946 -0.645574,0.205894 l -0.18721,0.151594 1.653546,5.331355 c 1.245487,4.015693 1.697492,5.366943 1.83163,5.475563 0.224887,0.1821 0.522469,0.0886 0.621341,-0.19522 z m -28.754638,0.0992 c 0.201,-0.21776 3.866209,-10.299062 3.80365,-10.462091 -0.06784,-0.176775 -0.627756,-0.433385 -0.726754,-0.33307 -0.08583,0.08698 -3.814431,10.342111 -3.814431,10.491221 0,0.17616 0.264932,0.46803 0.424837,0.46803 0.08868,0 0.229393,-0.0738 0.312698,-0.16409 z m 7.789452,-1.55041 c 0.142068,-0.15509 1.125865,-3.221608 2.142213,-6.677326 0.09028,-0.306964 -0.0054,-0.418827 -0.403986,-0.472287 -0.277271,-0.03719 -0.358494,-0.01581 -0.426363,0.112253 -0.159058,0.300117 -1.990102,6.50877 -1.991586,6.75301 -0.0014,0.23705 0.203467,0.47485 0.409159,0.47485 0.05283,0 0.174585,-0.0857 0.270563,-0.1905 z m 13.645831,-0.0714 c 0.115089,-0.20574 0.05742,-0.43202 -0.917056,-3.598332 -0.571926,-1.858332 -1.089339,-3.431271 -1.149805,-3.49542 -0.141508,-0.150125 -0.70541,-0.05518 -0.776772,0.130789 -0.06815,0.177606 1.996614,6.765703 2.202437,7.027373 0.203567,0.25879 0.475694,0.23146 0.641196,-0.0644 z M 42.543638,99.681825 c 0.08959,-0.04795 0.22104,-0.199624 0.29211,-0.337059 0.32702,-0.632387 3.249176,-8.224038 3.207439,-8.332805 -0.05993,-0.156165 -0.408851,-0.386959 -0.585021,-0.386959 -0.07732,0 -0.201998,0.153352 -0.292558,0.359833 -0.283853,0.647196 -3.122385,7.973946 -3.178912,8.205329 -0.0406,0.166182 -0.0086,0.271968 0.121582,0.402167 0.20353,0.20353 0.217079,0.206315 0.43536,0.08949 z M 75.98228,99.515002 c 0.09313,-0.09313 0.169333,-0.223575 0.169333,-0.289869 0,-0.155648 -2.608279,-8.749976 -2.717391,-8.953854 -0.107094,-0.200109 -0.198409,-0.194489 -0.50337,0.03098 -0.166645,0.123206 -0.249602,0.257909 -0.247679,0.402167 0.0016,0.119301 0.588895,2.120836 1.305119,4.447856 1.005783,3.267798 1.34455,4.265217 1.488153,4.3815 0.236172,0.191241 0.298116,0.188941 0.505835,-0.01878 z M 58.945442,81.941868 c 0.383227,-0.268423 0.151021,-0.6302 -0.404494,-0.6302 -0.577916,0 -0.800856,0.389647 -0.359834,0.628907 0.302443,0.164077 0.531368,0.164465 0.764328,0.0013 z m -6.501505,1.909363 c -0.286034,-0.114188 -0.422163,-0.354192 -0.480559,-0.847248 -0.08156,-0.688634 0.0073,-0.757976 0.399943,-0.311957 0.439805,0.499645 0.859878,0.637139 2.252297,0.737195 1.06691,0.07667 1.771176,0.204098 1.93143,0.349479 0.04588,0.04162 -0.154176,0.07308 -0.465667,0.07323 -0.300355,1.7e-4 -1.1938,0.01915 -1.985433,0.04223 -0.86901,0.02534 -1.523605,0.0083 -1.652011,-0.04293 z"
         id="path3449"
         inkscape:connector-curvature="0" />
    </g>
  </g>
</svg>
