<?xml version="1.0" encoding="UTF-8" standalone="no"?>
<!-- Created with Inkscape (http://www.inkscape.org/) -->

<svg
   xmlns:dc="http://purl.org/dc/elements/1.1/"
   xmlns:cc="http://creativecommons.org/ns#"
   xmlns:rdf="http://www.w3.org/1999/02/22-rdf-syntax-ns#"
   xmlns:svg="http://www.w3.org/2000/svg"
   xmlns="http://www.w3.org/2000/svg"
   xmlns:sodipodi="http://sodipodi.sourceforge.net/DTD/sodipodi-0.dtd"
   xmlns:inkscape="http://www.inkscape.org/namespaces/inkscape"
   width="250"
   height="250"
   id="svg2"
   version="1.1"
   inkscape:version="0.92.4 (5da689c313, 2019-01-14)"
   sodipodi:docname="Tudor_Rose.svg"
   inkscape:export-filename="logo.png"
   inkscape:export-xdpi="98.300003"
   inkscape:export-ydpi="98.300003">
  <defs
     id="defs4" />
  <sodipodi:namedview
     id="base"
     pagecolor="#ffffff"
     bordercolor="#666666"
     borderopacity="1.0"
     inkscape:pageopacity="0.0"
     inkscape:pageshadow="2"
     inkscape:zoom="0.958"
     inkscape:cx="98.204004"
     inkscape:cy="114.77782"
     inkscape:document-units="px"
     inkscape:current-layer="g16068"
     showgrid="false"
     inkscape:window-width="1366"
     inkscape:window-height="705"
     inkscape:window-x="0"
     inkscape:window-y="34"
     inkscape:window-maximized="1"
     showguides="true"
     inkscape:guide-bbox="true"
     inkscape:object-nodes="false"
     inkscape:snap-nodes="false"
     inkscape:snap-page="true"
     inkscape:snap-bbox="false"
     inkscape:snap-grids="false"
     inkscape:snap-to-guides="false"
     fit-margin-top="0"
     fit-margin-left="0"
     fit-margin-right="0"
     fit-margin-bottom="0">
    <inkscape:grid
       type="xygrid"
       id="grid14322"
       empspacing="5"
       visible="true"
       enabled="true"
       snapvisiblegridlinesonly="true" />
  </sodipodi:namedview>
  <metadata
     id="metadata7">
    <rdf:RDF>
      <cc:Work
         rdf:about="">
        <dc:format>image/svg+xml</dc:format>
        <dc:type
           rdf:resource="http://purl.org/dc/dcmitype/StillImage" />
        <dc:title />
      </cc:Work>
    </rdf:RDF>
  </metadata>
  <g
     inkscape:label="Layer"
     inkscape:groupmode="layer"
     id="layer1"
     transform="translate(-53.548697,867.91384)"
     style="display:inline">
    <g
       style="stroke-width:0.88760686;stroke-miterlimit:4;stroke-dasharray:none"
       id="g11618-9-0-2"
       transform="matrix(1.1266249,0,0,1.1266249,186.79382,233.42356)" />
    <g
       style="display:inline"
       id="g12789-5-3-9-0"
       transform="matrix(0.99769824,0.06781019,-0.06781019,0.99769824,-130.31105,-830.2291)" />
    <g
       id="g16068"
       style="stroke-width:1;stroke-miterlimit:4;stroke-dasharray:none">
      <g
         id="g1124"
         inkscape:export-xdpi="104.02"
         inkscape:export-ydpi="104.02"
         transform="matrix(0.88582986,0,0,0.88582986,18.384935,-84.818596)"
         style="stroke-width:1.12888491">
        <circle
           inkscape:export-ydpi="104.02"
           inkscape:export-xdpi="104.02"
           r="128"
           cy="-742.91382"
           cx="178.54869"
           id="path1052"
           style="opacity:1;fill:#f9f9f9;fill-opacity:1;stroke:none;stroke-width:1.98399305;stroke-linecap:square;stroke-linejoin:miter;stroke-miterlimit:4;stroke-dasharray:none;stroke-dashoffset:0;stroke-opacity:1" />
        <g
           inkscape:export-ydpi="104.02"
           inkscape:export-xdpi="104.02"
           style="stroke-width:1.24460709"
           transform="matrix(0.90703288,0,0,0.90700952,15.686841,-59.444562)"
           id="g1048">
          <path
             inkscape:connector-curvature="0"
             id="path22178"
             d="m 178.54869,-711.33846 c 19.99898,13.48376 26.05457,47.84636 19.21632,76.28124 -4.52553,-0.4218 -6.12915,-1.73414 -8.26614,-4.4446 0.78512,6.51173 -3.28334,8.51032 -10.95018,16.28347 -7.66684,-7.77315 -11.7353,-9.77174 -10.95018,-16.28347 -2.13698,2.71046 -3.74061,4.0228 -8.26614,4.4446 -6.83824,-28.43488 -0.78265,-62.79748 19.21632,-76.28124 z"
             style="fill:#529423;fill-opacity:1;stroke:#2d5016;stroke-width:1.86691046;stroke-linecap:butt;stroke-linejoin:miter;stroke-miterlimit:4;stroke-dasharray:none;stroke-opacity:1"
             sodipodi:nodetypes="ccccccc" />
          <path
             inkscape:connector-curvature="0"
             id="path22344"
             d="m 154.04552,-786.75155 c -24.10508,0.84651 -49.20198,-23.39403 -60.383326,-50.41775 3.909163,-2.3188 5.977893,-2.19968 9.299916,-1.26297 -4.462668,-4.80661 -2.34596,-8.81488 -0.7123,-19.60995 10.77155,1.78215 15.23774,1.00767 18.43006,6.73725 0.13569,-3.4489 0.66168,-5.45318 4.07499,-8.45447 22.24585,18.98488 37.54461,50.34419 29.29066,73.00789 z"
             style="fill:#529423;fill-opacity:1;stroke:#2d5016;stroke-width:1.86691046;stroke-linecap:butt;stroke-linejoin:miter;stroke-miterlimit:4;stroke-dasharray:none;stroke-opacity:1"
             sodipodi:nodetypes="ccccccc" />
          <path
             sodipodi:nodetypes="ccccccc"
             style="fill:#529423;fill-opacity:1;stroke:#2d5016;stroke-width:1.86691046;stroke-linecap:butt;stroke-linejoin:miter;stroke-miterlimit:4;stroke-dasharray:none;stroke-opacity:1"
             d="m 203.0519,-786.75158 c -8.25395,-22.6637 7.0448,-54.02302 29.29066,-73.00789 3.41331,3.00128 3.93929,5.00557 4.07499,8.45447 3.19231,-5.72958 7.65851,-4.9551 18.43006,-6.73725 1.63366,10.79506 3.75036,14.80334 -0.71231,19.60995 3.32203,-0.93671 5.39076,-1.05583 9.29992,1.26297 -11.18134,27.02371 -36.27825,51.26425 -60.38332,50.41775 z"
             id="path22354"
             inkscape:connector-curvature="0" />
          <path
             sodipodi:nodetypes="ccccccc"
             style="fill:#529423;fill-opacity:1;stroke:#2d5016;stroke-width:1.86691046;stroke-linecap:butt;stroke-linejoin:miter;stroke-miterlimit:4;stroke-dasharray:none;stroke-opacity:1"
             d="m 138.90168,-740.14378 c -6.64381,23.18687 -37.4533,39.56471 -66.609604,41.84801 -0.997311,-4.43438 -0.244752,-6.36505 1.672678,-9.23502 -5.950399,2.75892 -9.108398,-0.49281 -18.870285,-5.38237 5.023519,-9.69364 5.667073,-14.18057 12.102703,-15.44611 -3.238161,-1.19482 -4.981814,-2.31442 -6.781437,-6.48812 24.930038,-15.29041 59.482095,-20.14983 78.485945,-5.29639 z"
             id="path22334"
             inkscape:connector-curvature="0" />
          <path
             inkscape:connector-curvature="0"
             id="path22364"
             d="m 218.19574,-740.14373 c 19.00385,-14.85345 53.55591,-9.99403 78.48594,5.29639 -1.79962,4.17369 -3.54327,5.29329 -6.78143,6.48811 6.43563,1.26554 7.07918,5.75248 12.1027,15.44611 -9.76189,4.88956 -12.91989,8.1413 -18.87028,5.38237 1.91743,2.86997 2.66999,4.80064 1.67267,9.23502 -29.1563,-2.2833 -59.96579,-18.66113 -66.6096,-41.848 z"
             style="fill:#529423;fill-opacity:1;stroke:#2d5016;stroke-width:1.86691046;stroke-linecap:butt;stroke-linejoin:miter;stroke-miterlimit:4;stroke-dasharray:none;stroke-opacity:1"
             sodipodi:nodetypes="ccccccc" />
          <path
             inkscape:connector-curvature="0"
             id="path20355"
             style="display:inline;fill:#d40000;fill-opacity:1;stroke:#800000;stroke-width:1.86691034;stroke-miterlimit:4;stroke-dasharray:none;stroke-opacity:1"
             d="m 79.189005,-729.53176 c -16.940698,-11.92278 -7.332932,-38.27264 -1.093162,-58.00877 6.240189,-19.73598 13.538402,-46.85703 34.063057,-46.26975 21.02837,0.60169 11.51464,31.6541 31.16794,29.99603 7.60762,-18.69627 -24.06976,-18.99355 -18.12846,-39.732 5.79897,-20.24169 33.15342,-18.99389 53.34642,-18.99413 20.193,2.4e-4 47.54745,-1.24756 53.34642,18.99415 5.94129,20.73843 -25.73608,21.03571 -18.12841,39.73196 19.65335,1.65806 10.13962,-29.39435 31.16798,-29.99603 20.52466,-0.58728 27.82286,26.53376 34.06305,46.26976 6.23977,19.73611 15.84753,46.08599 -1.09316,58.00875 -17.35645,12.21539 -27.42041,-18.65329 -42.37194,-5.44036 4.53876,19.72094 30.3363,0.82677 37.39127,21.19336 6.88596,19.87873 -15.95795,35.39265 -32.29429,47.5904 -16.33662,12.19738 -37.75313,29.73029 -54.02204,16.85728 -16.66816,-13.18893 8.78934,-32.56412 -8.05885,-43.0943 -16.8482,10.53017 8.60929,29.90535 -8.05887,43.09427 -16.2689,12.87301 -37.68543,-4.6599 -54.02203,-16.85727 -16.33635,-12.19774 -39.180256,-27.71166 -32.294291,-47.5904 7.054948,-20.36658 32.852511,-1.47241 37.391291,-21.19334 -14.95152,-13.21291 -25.015485,17.65576 -42.371925,5.44039 z"
             sodipodi:nodetypes="scscscscscscscscscscs" />
          <path
             style="color:#000000;font-style:normal;font-variant:normal;font-weight:normal;font-stretch:normal;font-size:medium;line-height:normal;font-family:'Bitstream Vera Sans';-inkscape-font-specification:'Bitstream Vera Sans';text-indent:0;text-align:start;text-decoration:none;text-decoration-line:none;letter-spacing:normal;word-spacing:normal;text-transform:none;writing-mode:lr-tb;direction:ltr;text-anchor:start;display:inline;overflow:visible;visibility:visible;fill:#ff2a2a;fill-opacity:1;stroke:none;stroke-width:1.86691046;stroke-miterlimit:4;stroke-dasharray:none;stroke-opacity:1;marker:none;enable-background:accumulate"
             d="m 208.83575,-855.24665 c 0.69844,0.002 1.40671,-0.003 2.15354,0.0458 4.96181,0.32594 8.99777,2.40846 12.87544,5.31513 2.64994,1.98693 4.58208,5.49813 4.58201,5.49841 -3.51043,-0.32068 -5.92347,-7.2567 -17.59491,-7.74359 -5.06415,-0.20981 -10.14469,0.35071 -15.44136,2.70338 -5.29705,2.3529 -10.80014,3.34487 -16.54105,3.34487 -5.74091,0 -11.28981,-0.99197 -16.58686,-3.34487 -5.29667,-2.35267 -10.37721,-2.91319 -15.44136,-2.70338 -11.67144,0.48689 -14.03866,7.42291 -17.54909,7.74359 -7e-5,-2.8e-4 1.88625,-3.51148 4.53619,-5.49841 3.87767,-2.90667 7.91363,-4.98919 12.87544,-5.31513 5.97461,-0.39287 10.21229,0.75236 15.533,3.11577 5.32063,2.36317 11.75598,3.89471 16.63268,3.89471 4.87671,0 11.26624,-1.53154 16.58687,-3.89471 4.65563,-2.06799 8.49033,-3.17805 13.37946,-3.16159 z m -98.55897,24.55956 c -1.38156,3.33191 -8.49743,3.54301 -12.554697,14.79988 -1.75908,4.88473 -2.785699,10.04155 -2.245183,15.94539 0.540618,5.90427 -0.287868,11.57153 -2.061903,17.18252 -1.774036,5.61101 -4.387422,10.71635 -8.201793,15.16645 -3.814048,4.44981 -5.868825,9.23565 -7.239571,14.25004 -3.156071,11.55778 2.483346,16.03509 1.695343,19.56517 -2.93e-4,-2e-5 -2.691493,-2.93592 -3.711426,-6.13989 -1.49171,-4.68814 -2.148044,-9.2998 -0.916401,-14.25004 1.482679,-5.96084 3.866363,-9.73424 7.697772,-14.20423 3.831158,-4.46995 7.198824,-10.26262 8.705813,-15.02898 1.506989,-4.76636 2.100714,-11.52696 1.557882,-17.45744 -0.543023,-5.93065 -0.285404,-10.41066 1.924443,-16.12867 1.834914,-4.74881 4.955033,-8.05928 8.843271,-10.95099 2.65768,-1.97597 6.5062,-2.74936 6.50645,-2.74921 z m 136.72709,0.59566 c 2.3e-4,-1.6e-4 3.80295,0.77322 6.46063,2.74921 3.88825,2.89171 7.05418,6.20218 8.88909,10.95099 2.20983,5.71801 2.46747,10.24385 1.92444,16.17449 -0.54283,5.93048 0.0509,12.64526 1.55789,17.41162 1.50698,4.76637 4.87463,10.55903 8.70581,15.02899 3.83141,4.46998 6.21509,8.28923 7.69777,14.25004 1.23164,4.95025 0.57531,9.51609 -0.9164,14.20422 -1.01992,3.20397 -3.71115,6.13987 -3.71143,6.13989 -0.788,-3.53008 4.85142,-8.00739 1.69535,-19.56517 -1.37077,-5.01439 -3.42553,-9.80023 -7.23958,-14.25004 -3.81438,-4.45011 -6.42774,-9.55544 -8.20179,-15.16645 -1.77403,-5.61099 -2.6025,-11.27825 -2.0619,-17.18252 0.54051,-5.90384 -0.48612,-11.06065 -2.24518,-15.94539 -4.05729,-11.25687 -11.17315,-11.46797 -12.5547,-14.79988 z M 86.496166,-711.00507 c 2.656582,2.37992 0.641584,9.41776 9.805495,16.86179 3.976989,3.22872 8.390209,5.85183 14.020939,7.14793 5.63118,1.29614 10.65941,3.81759 15.3039,7.28539 4.64449,3.46779 8.56119,7.58895 11.50084,12.69216 2.93947,5.1028 6.73401,8.65738 10.951,11.54665 9.72088,6.65622 15.57954,2.5377 18.60295,4.39873 -1.1e-4,2.8e-4 -3.5469,1.64275 -6.82719,1.64952 -4.79959,0.009 -9.22468,-0.74882 -13.42528,-3.48232 -5.05828,-3.29111 -7.86076,-6.78722 -10.81354,-11.91322 -2.95284,-5.12578 -7.23475,-10.20459 -11.1801,-13.15036 -3.94535,-2.94577 -10.01434,-5.57094 -15.67046,-6.87301 -5.65632,-1.30192 -9.732828,-2.99203 -14.341682,-6.91883 -3.827772,-3.26085 -5.948251,-7.31102 -7.422851,-12.00486 -1.007396,-3.20817 -0.504241,-7.23938 -0.504021,-7.23957 z m 183.601014,0.36656 c 2.2e-4,1.9e-4 0.50338,4.03141 -0.50402,7.23957 -1.4746,4.69384 -3.59508,8.78983 -7.42285,12.05068 -4.60885,3.9268 -8.68536,5.57109 -14.34168,6.87301 -5.6561,1.30207 -11.72512,3.92724 -15.67047,6.87301 -3.94535,2.94577 -8.22726,8.0704 -11.18009,13.19618 -2.95278,5.126 -5.75527,8.57629 -10.81354,11.8674 -4.20059,2.7335 -8.62568,3.53738 -13.42528,3.52814 -3.28029,-0.006 -6.82709,-1.69506 -6.82719,-1.69534 3.02341,-1.86103 8.88209,2.25749 18.60295,-4.39873 4.217,-2.88927 8.01153,-6.39803 10.951,-11.50083 2.93964,-5.10321 6.85635,-9.22437 11.50083,-12.69216 4.64449,-3.4678 9.67273,-6.03507 15.30391,-7.33121 5.63073,-1.2961 10.04396,-3.91921 14.02094,-7.14793 9.16391,-7.44403 7.14892,-14.48187 9.80549,-16.86179 z"
             id="path20357"
             inkscape:connector-curvature="0" />
          <path
             sodipodi:nodetypes="scscscscscscscscscscs"
             d="m 125.55506,-766.56976 c -9.03503,6.35881 -3.91089,20.41207 -0.58302,30.93801 3.3281,10.52585 7.22049,24.99042 18.16697,24.6772 11.21513,-0.3209 6.14114,-16.88219 16.6229,-15.99788 4.05739,9.97134 -12.8372,10.12989 -9.66851,21.1904 3.09278,10.79556 17.68182,10.13007 28.45142,10.1302 10.7696,-1.3e-4 25.35864,0.66536 28.45142,-10.13021 3.16869,-11.0605 -13.7259,-11.21905 -9.66848,-21.19038 10.48179,-0.8843 5.4078,15.67698 16.62292,15.99788 10.94649,0.31321 14.83886,-14.15134 18.16696,-24.6772 3.32788,-10.52593 8.45202,-24.5792 -0.58302,-30.938 -9.25677,-6.51488 -14.62421,9.94841 -22.59837,2.90152 2.42068,-10.51783 16.17936,-0.44094 19.94201,-11.30312 3.67252,-10.60199 -8.5109,-18.87609 -17.22362,-25.38155 -8.71286,-6.50527 -20.135,-15.85615 -28.81175,-8.99055 -8.88968,7.0341 4.68764,17.36753 -4.29806,22.98363 -8.9857,-5.61609 4.59163,-15.94952 -4.29806,-22.98361 -8.67674,-6.86561 -20.09889,2.48528 -28.81175,8.99054 -8.71271,6.50546 -20.89613,14.77955 -17.22362,25.38155 3.76264,10.86217 17.52134,0.78528 19.94202,11.30311 -7.97414,7.04689 -13.34159,-9.41641 -22.59836,-2.90154 z"
             style="display:inline;fill:#ffffff;fill-opacity:1;stroke:#999999;stroke-width:1.86691046;stroke-miterlimit:4;stroke-dasharray:none;stroke-opacity:1"
             id="path20550"
             inkscape:connector-curvature="0" />
          <path
             inkscape:connector-curvature="0"
             style="display:inline;fill:#f9f9f9;fill-opacity:1;stroke:none;stroke-width:1.86691046;stroke-miterlimit:4;stroke-dasharray:none;stroke-opacity:1"
             d="m 178.53569,-698.43575 c 5.43759,-7e-5 11.6282,0.12795 16.53236,-0.95505 4.90417,-1.08301 8.10423,-2.95194 9.3178,-7.18799 0.60595,-2.11511 0.31388,-3.07764 -0.41576,-4.24745 -0.72963,-1.16981 -2.15907,-2.41582 -3.81516,-3.74479 -1.65608,-1.32897 -3.57165,-2.7379 -4.91568,-4.95117 -1.34403,-2.21327 -1.71584,-5.3851 -0.44021,-8.52003 a 2.729222,2.8047369 0 0 1 2.29888,-1.70903 c 3.29533,-0.27802 6.11824,1.06975 7.7526,3.0662 1.63436,1.99645 2.3614,4.2794 3.08147,6.30834 0.72007,2.02894 1.4158,3.80069 2.27442,4.87577 0.85863,1.07509 1.67036,1.6728 3.81516,1.73417 4.2957,0.12291 7.00111,-2.40427 9.51345,-6.86126 2.51234,-4.457 4.31087,-10.54264 5.99176,-15.85882 1.68074,-5.31611 3.71483,-11.3399 4.23091,-16.46201 0.51608,-5.12211 -0.22031,-8.81416 -3.76625,-11.30977 -1.77098,-1.24641 -2.77617,-1.25467 -4.08417,-0.90478 -1.30801,0.34989 -2.88088,1.35909 -4.62222,2.56354 -1.74133,1.20446 -3.65078,2.61611 -6.11404,3.24214 -2.46325,0.62603 -5.51532,0.0283 -8.02162,-2.18656 a 2.729222,2.8047369 0 0 1 -0.88042,-2.78974 c 0.76085,-3.3059 2.90618,-5.63141 5.25808,-6.60994 2.35189,-0.97852 4.67713,-0.98152 6.77435,-1.05557 2.09722,-0.0741 3.95233,-0.19893 5.20916,-0.70372 1.25684,-0.5048 2.06823,-1.11398 2.788,-3.19187 1.44144,-4.1612 -0.0776,-7.60345 -3.42386,-11.43544 -3.34625,-3.83199 -8.43926,-7.47137 -12.83948,-10.75685 -4.40117,-3.28604 -9.33558,-7.13404 -13.91555,-9.22375 -4.57997,-2.08972 -8.21172,-2.51829 -11.61667,0.17593 -1.70025,1.34535 -2.02303,2.33114 -2.10323,3.71965 -0.0802,1.38852 0.37673,3.25187 0.95379,5.32817 0.57705,2.07629 1.30622,4.35968 1.12498,6.96179 -0.18124,2.60211 -1.69957,5.39733 -4.52439,7.16286 a 2.729222,2.8047369 0 0 1 -2.83691,0 c -2.8253,-1.76582 -4.34629,-4.55998 -4.52439,-7.16286 -0.1781,-2.60288 0.56935,-4.88554 1.14944,-6.96179 0.58008,-2.07626 1.03238,-3.94041 0.95379,-5.32817 -0.0786,-1.38775 -0.40346,-2.37469 -2.10323,-3.71965 -3.40495,-2.69422 -7.03671,-2.26565 -11.61667,-0.17593 -4.57997,2.08971 -9.5144,5.93771 -13.91556,9.22375 -4.4012,3.28621 -9.48705,6.92417 -12.83948,10.75685 -3.35242,3.83268 -4.88911,7.27609 -3.44832,11.43544 0.71947,2.07699 1.52856,2.68664 2.78801,3.19187 1.25944,0.50522 3.10887,0.62966 5.20916,0.70372 2.10029,0.0741 4.44505,0.0776 6.79881,1.05557 2.35375,0.97797 4.49698,3.30301 5.25807,6.60994 a 2.729222,2.8047369 0 0 1 -0.88042,2.78974 c -2.50629,2.21485 -5.55836,2.81259 -8.02162,2.18656 -2.46326,-0.62603 -4.3727,-2.03768 -6.11404,-3.24214 -1.74133,-1.20445 -3.3142,-2.21365 -4.62221,-2.56354 -1.30801,-0.34989 -2.3132,-0.34163 -4.08418,0.90478 -3.54594,2.49561 -4.28233,6.18766 -3.76625,11.30977 0.51609,5.12211 2.55018,11.14589 4.23092,16.46201 1.68088,5.31617 3.47941,11.40181 5.99176,15.85882 2.51234,4.457 5.21774,6.98417 9.51344,6.86126 2.14478,-0.0614 2.959,-0.66024 3.81516,-1.73417 0.85616,-1.07393 1.55742,-2.84688 2.27442,-4.87577 0.717,-2.02888 1.42481,-4.31061 3.05702,-6.30834 1.63222,-1.99772 4.45736,-3.34421 7.7526,-3.0662 a 2.729222,2.8047369 0 0 1 2.29888,1.70903 c 1.27524,3.134 0.90086,6.30639 -0.44021,8.52003 -1.34107,2.21364 -3.23818,3.62219 -4.89123,4.95117 -1.65305,1.32897 -3.0872,2.5752 -3.81516,3.74479 -0.72796,1.16959 -1.02198,2.1314 -0.41575,4.24745 1.21412,4.23797 4.39583,6.10523 9.29333,7.18799 4.8975,1.08276 11.09478,0.95498 16.53236,0.95505 z"
             id="path20552" />
          <path
             sodipodi:nodetypes="ccccccccccccccccc"
             inkscape:connector-curvature="0"
             id="path24331-1-5"
             d="m 178.57498,-729.86737 c 4.64081,2.42471 7.18814,0.72975 9.25205,-1.86682 3.11494,-0.18696 6.29005,0.37651 7.57465,-5.10097 4.41296,-1.08854 6.25945,-3.61295 5.117,-7.58767 3.19088,-2.09935 4.27057,-5.06948 1.87904,-9.32526 2.42468,-5.37612 -0.11099,-7.64112 -1.87778,-9.34133 0.56762,-3.46209 -0.3992,-6.30594 -5.11487,-7.62275 -1.18464,-4.76513 -4.2902,-5.08589 -7.5742,-5.13638 -2.16411,-2.4831 -4.97645,-3.74021 -9.25589,-1.88258 -3.93812,-1.84517 -6.95889,-0.87339 -9.25586,1.88258 -4.31872,-0.84617 -6.34343,1.66904 -7.57421,5.13638 -4.54346,1.72185 -5.34951,4.48208 -5.11487,7.62275 -3.15856,2.99177 -3.80707,6.14687 -1.87777,9.34133 -1.93158,3.70119 -2.20762,7.0406 1.87905,9.32526 -0.084,4.54211 1.82959,6.89859 5.11699,7.58767 1.2594,2.73793 1.74955,5.82481 7.57464,5.10097 2.08617,2.02818 3.9539,4.05637 9.25203,1.86682 z"
             style="display:inline;fill:#f3c702;fill-opacity:1;stroke:#aa8800;stroke-width:1.86691046;stroke-miterlimit:4;stroke-dasharray:none" />
        </g>
      </g>
      <g
         style="fill:#800000;fill-opacity:1;stroke-width:0.51315808;stroke-miterlimit:4;stroke-dasharray:none"
         id="g20337"
         transform="matrix(1.6051339,-1.2540946,-1.2540946,-1.6051339,1340.2095,-374.29972)"
         inkscape:export-xdpi="104.02"
         inkscape:export-ydpi="104.02" />
      <g
         style="fill:#800000;fill-opacity:1;stroke-width:0.51315808;stroke-miterlimit:4;stroke-dasharray:none"
         id="g20237"
         transform="matrix(-0.56144234,1.9580579,1.9580579,0.56144234,-1620.8897,-380.22251)"
         inkscape:export-xdpi="104.02"
         inkscape:export-ydpi="104.02" />
      <g
         transform="matrix(0.56144234,-1.9580579,1.9580579,0.56144234,-1142.1667,-2049.7927)"
         style="fill:#800000;fill-opacity:1;stroke-width:0.51315808;stroke-miterlimit:4;stroke-dasharray:none;display:inline"
         id="g20241"
         inkscape:export-xdpi="104.02"
         inkscape:export-ydpi="104.02" />
      <g
         transform="matrix(1.6887285,1.1390366,1.1390366,-1.6887285,-142.49167,698.42118)"
         id="g20325"
         style="fill:#800000;fill-opacity:1;stroke-width:0.51315808;stroke-miterlimit:4;stroke-dasharray:none"
         inkscape:export-xdpi="104.02"
         inkscape:export-ydpi="104.02" />
      <g
         transform="matrix(-0.69670118,-1.9141096,-1.9141096,0.69670118,778.17121,-2115.9214)"
         id="g20349"
         style="fill:#800000;fill-opacity:1;stroke-width:0.51315808;stroke-miterlimit:4;stroke-dasharray:none"
         inkscape:export-xdpi="104.02"
         inkscape:export-ydpi="104.02" />
    </g>
  </g>
</svg>
