<?xml version="1.0" encoding="UTF-8" standalone="no"?>
<!-- Created with Inkscape (http://www.inkscape.org/) -->

<svg
   xmlns:dc="http://purl.org/dc/elements/1.1/"
   xmlns:cc="http://creativecommons.org/ns#"
   xmlns:rdf="http://www.w3.org/1999/02/22-rdf-syntax-ns#"
   xmlns:svg="http://www.w3.org/2000/svg"
   xmlns="http://www.w3.org/2000/svg"
   xmlns:sodipodi="http://sodipodi.sourceforge.net/DTD/sodipodi-0.dtd"
   xmlns:inkscape="http://www.inkscape.org/namespaces/inkscape"
   width="500mm"
   height="115mm"
   viewBox="0 0 499.99999 115"
   version="1.1"
   id="svg8"
   inkscape:export-filename="/home/andyhalsall/reddit/rengland/overlay_2.png"
   inkscape:export-xdpi="27.360001"
   inkscape:export-ydpi="27.360001"
   inkscape:version="0.92.4 (5da689c313, 2019-01-14)"
   sodipodi:docname="text.svg">
  <defs
     id="defs2" />
  <sodipodi:namedview
     id="base"
     pagecolor="#ffffff"
     bordercolor="#666666"
     borderopacity="1.0"
     inkscape:pageopacity="0.0"
     inkscape:pageshadow="2"
     inkscape:zoom="0.35"
     inkscape:cx="1178.8567"
     inkscape:cy="265.05449"
     inkscape:document-units="mm"
     inkscape:current-layer="layer1"
     showgrid="false"
     inkscape:window-width="1366"
     inkscape:window-height="705"
     inkscape:window-x="0"
     inkscape:window-y="34"
     inkscape:window-maximized="1"
     fit-margin-top="0"
     fit-margin-left="0"
     fit-margin-right="0"
     fit-margin-bottom="0" />
  <metadata
     id="metadata5">
    <rdf:RDF>
      <cc:Work
         rdf:about="">
        <dc:format>image/svg+xml</dc:format>
        <dc:type
           rdf:resource="http://purl.org/dc/dcmitype/StillImage" />
        <dc:title></dc:title>
      </cc:Work>
    </rdf:RDF>
  </metadata>
  <g
     inkscape:label="Layer 1"
     inkscape:groupmode="layer"
     id="layer1"
     transform="translate(127.96123,-86.794669)">
    <path
       style="opacity:1;fill:#000000;fill-opacity:1;stroke:none;stroke-width:0.46499994;stroke-linecap:square;stroke-linejoin:miter;stroke-miterlimit:4;stroke-dasharray:none;stroke-dashoffset:0;stroke-opacity:1"
       d="m -127.42441,86.794669 c -0.29726,0 -0.53682,0.240841 -0.53682,0.539699 V 201.25497 c 0,0.29886 0.23956,0.5397 0.53682,0.5397 h 498.92636 c 0.29725,0 0.53681,-0.24084 0.53681,-0.5397 V 87.334368 c 0,-0.298858 -0.23956,-0.539699 -0.53681,-0.539699 z m 106.635314,23.522081 v 9.52836 c 0.43049,2.00487 -0.07495,4.83793 -2.405684,3.23764 0.467058,-2.61488 -0.648453,-5.66842 -3.627379,-6.52768 -6.88362,-0.38203 -13.869358,-0.0512 -20.791578,-0.16224 v 26.85059 h 13.236248 c 2.546255,0.31979 5.983594,-0.0675 6.741791,-2.78156 0.224038,-1.85806 -0.261516,-3.81392 2.574824,-3.04809 v 11.80147 c -0.06205,1.97362 0.808643,4.80246 -2.406238,3.88551 0.354927,-2.19139 -0.266269,-4.92481 -2.868189,-5.66741 -5.722037,-0.39321 -11.526318,-0.0438 -17.278436,-0.16225 v 25.93903 c 6.256812,-0.22919 12.604053,0.51024 18.800706,-0.47892 5.507562,-0.92367 9.034732,-5.4096 11.128363,-9.80214 0.329742,-1.62799 1.563408,-1.93786 3.252498,-1.65087 -2.089051,5.35041 -4.178569,10.70063 -6.267642,16.05103 h -38.548602 c -2.187309,0.39499 -5.276951,-0.0692 -3.531441,-2.20618 3.195969,0.5247 6.706731,-1.28059 7.208731,-4.34826 0.204521,-16.40578 0.02913,-32.83217 0.08762,-49.24589 0.615556,-2.96167 -1.102807,-6.36736 -4.536858,-6.95198 -2.019717,0.0356 -3.624009,0.003 -3.187615,-2.30263 H -49.324 c 9.16225,-0.27491 18.700292,0.90483 27.559987,-1.59067 0.324864,-0.12225 0.650055,-0.24459 0.97492,-0.36686 z m 11.4172904,12.3144 c 0.3954391,-0.0221 1.0221968,0.16721 1.3425892,0.0462 13.6167781,12.89946 27.2337574,25.79895 40.8505844,38.69835 v -30.18745 c 0.469946,-2.30609 -0.782922,-5.0776 -3.31849,-5.31559 -1.631547,0.0566 -3.155297,0.16646 -2.528241,-1.98708 h 12.859146 c 1.73493,0.0505 4.222208,-0.65547 3.416091,1.94972 -2.168604,-0.27371 -5.044242,0.20187 -5.659288,2.70631 -0.264182,4.79443 -0.02492,9.63013 -0.107035,14.43918 0.175677,9.53519 -0.403656,19.10123 0.398174,28.60017 0.06403,1.44701 1.165143,3.58674 -1.193967,2.88749 C 23.049333,161.4741 9.4103909,148.48044 -4.2282644,135.48633 c 0.018576,10.33193 0.036873,20.66399 0.05546,30.99591 -0.4291561,2.21031 0.9344892,4.6551 3.27800586,4.87123 1.62926396,-0.0613 3.11945104,-0.15049 2.49940524,1.9882 H -11.254538 c -1.735322,-0.0503 -4.222896,0.65523 -3.416649,-1.95029 2.173409,0.28356 5.0502262,-0.18826 5.6592889,-2.70629 0.2577274,-5.95152 0.030703,-11.94264 0.1075855,-17.90877 -0.195216,-9.18651 0.5379886,-18.39531 -0.7176001,-27.46501 -0.2254012,-0.51787 -0.057456,-0.66302 0.2501071,-0.68019 z m 206.0763156,0 c 0.39543,-0.0221 1.02219,0.16721 1.34259,0.0462 13.61678,12.89946 27.23379,25.79895 40.85057,38.69835 v -30.18745 c 0.4696,-2.30498 -0.78145,-5.07569 -3.31571,-5.31504 -1.63155,0.0545 -3.159,0.16815 -2.53102,-1.98763 h 12.85972 c 1.7349,0.0505 4.22217,-0.65547 3.41608,1.94972 -2.16719,-0.27897 -5.04683,0.20924 -5.65984,2.70631 -0.26421,4.79443 -0.0249,9.63013 -0.107,14.43918 0.17565,9.53519 -0.40367,19.10123 0.39816,28.60017 0.0649,1.44734 1.16561,3.58688 -1.19397,2.88749 -13.63839,-12.99435 -27.27737,-25.98801 -40.91602,-38.98212 l 0.0555,30.99591 c -0.42913,2.21031 0.93449,4.6551 3.27801,4.87123 1.62927,-0.0613 3.11947,-0.15049 2.49941,1.9882 h -12.85915 c -1.73532,-0.0503 -4.22233,0.65523 -3.41607,-1.95029 2.17442,0.27581 5.05128,-0.20034 5.65873,-2.70629 0.25773,-5.95152 0.0307,-11.94264 0.10758,-17.90877 -0.19523,-9.18651 0.53797,-18.39531 -0.71761,-27.46501 -0.22539,-0.51787 -0.0575,-0.66302 0.25012,-0.68019 z m -35.87453,0.0893 c 0.3641,0.0119 0.81439,0.11981 1.08529,0.0373 6.1021,13.56427 12.20483,27.12849 18.30713,40.69266 1.37109,3.01618 2.64934,7.09523 6.37579,7.84292 1.54969,-0.002 2.61624,0.12909 2.10844,2.0484 h -14.14072 c -1.73533,-0.0503 -4.22235,0.65524 -3.41611,-1.95028 1.73632,0.4134 3.9748,-0.81376 3.74439,-2.7916 -1.08923,-3.98517 -3.07197,-7.71702 -4.50525,-11.60409 h -19.4756 l -3.77988,8.99536 c -1.04349,1.61409 -1.42698,4.38544 0.78914,5.20185 1.52349,0.22773 2.73245,0.11324 2.18108,2.14876 h -13.01941 c -1.73533,-0.0503 -4.22234,0.65524 -3.41609,-1.95028 2.54595,0.32792 5.10973,-0.99858 6.36524,-3.23986 5.0221,-10.35972 9.72286,-20.88967 14.62265,-31.31427 1.89996,-4.49725 4.48067,-8.79441 5.60605,-13.57779 -0.0742,-0.46665 0.2038,-0.55106 0.56786,-0.53914 z m -91.43369,0.0406 c 6.843504,-0.0822 13.870956,1.35291 19.675248,5.13496 0.483717,3.11621 0.967073,6.23262 1.450731,9.34883 0.291877,1.62031 1.048398,3.64148 -1.376974,2.9232 -0.423971,-1.83455 -0.996603,-3.64786 -1.881068,-5.31449 -2.519952,-5.27116 -8.310898,-7.92923 -13.872329,-8.3581 -6.13028,-0.77524 -12.811359,0.55089 -17.314485,5.1199 -5.567501,5.55467 -6.818938,14.05175 -5.825104,21.51271 0.803896,7.06515 5.209817,14.10632 12.140439,16.51937 8.290582,2.84533 18.046589,0.89691 24.410084,-5.28715 0.345287,-3.2225 0.09385,-6.70447 0.211841,-10.0257 0.391518,-1.63025 -0.892376,-3.14841 -2.540439,-3.11107 -1.615466,0.15391 -2.801825,-0.003 -2.260943,-1.97482 h 12.378895 c 1.734928,0.0505 4.22221,-0.65547 3.416093,1.94972 -1.516483,0.0365 -3.821543,-0.35161 -4.537414,1.44459 -0.473623,3.57485 -0.03712,7.25512 -0.18744,10.86646 -1.076013,1.87563 -2.970646,3.32075 -4.644999,4.72405 -7.715576,6.1653 -18.392617,7.60816 -27.758521,5.02679 -7.93771,-2.02238 -14.666244,-8.37684 -16.767689,-16.38836 -1.984088,-7.7886 -1.405634,-16.68378 3.18096,-23.47357 4.803171,-7.239 13.678403,-10.68597 22.103114,-10.63732 z m 41.06797,1.07662 c 1.08142,0.0345 1.86416,0.36941 1.36034,1.99766 -2.22661,-0.31387 -5.07729,0.50164 -5.6116,3.00068 -0.17464,13.61172 -0.0241,27.24461 -0.0743,40.86438 5.03236,-0.16654 10.10803,0.34371 15.1151,-0.2743 4.08821,-0.50727 7.04175,-3.89199 8.59457,-7.46881 0.25179,-1.38976 1.33348,-1.44244 2.57815,-1.27455 -1.61403,4.21977 -3.22807,8.43951 -4.84297,12.65896 H 97.523593 c -1.73532,-0.0503 -4.22234,0.65524 -3.416092,-1.95028 2.355402,0.40677 5.297405,-0.56753 5.70421,-3.23596 0.145568,-12.26112 0.0204,-24.5385 0.06211,-36.80603 0.462649,-2.2982 -0.747072,-4.92207 -3.157112,-5.39923 -1.210006,-0.33763 -3.216786,0.50397 -2.609205,-1.49254 v -0.28602 -0.28602 h 14.301006 c 0.6506,0.0189 1.4069,-0.0686 2.05576,-0.0478 z m 166.86113,0.003 c 4.35096,-0.0184 8.68103,0.20057 12.85248,1.56893 6.97035,2.10362 12.72509,7.81155 14.69918,14.88074 1.97593,7.30199 1.54991,15.62754 -2.48332,22.17172 -4.0412,6.64624 -11.70136,10.25215 -19.25878,10.73823 -9.19026,0.34692 -18.39946,0.0353 -27.59656,0.14107 -1.76324,0.34915 -4.25366,-0.0612 -2.84657,-1.95028 2.28957,0.4344 4.89947,-0.8504 5.25776,-3.30789 0.14854,-12.11549 0.021,-24.24804 0.0639,-36.37005 0.37643,-2.28703 -0.42653,-5.05102 -2.88428,-5.7198 -1.20902,-0.44304 -3.34396,0.52427 -2.72233,-1.53603 v -0.28602 -0.28602 h 14.79289 c 3.3449,0.12782 6.74163,-0.0304 10.12572,-0.0445 z m 0.32442,3.57105 c -2.05057,0.004 -4.10146,0.076 -6.09352,0.0335 H 264.357 v 42.33517 h 10.51946 c 5.66509,0.1369 11.82194,0.21252 16.57858,-3.42329 5.55752,-4.04346 7.75759,-11.1219 7.64293,-17.73927 0.17494,-6.97663 -2.45393,-14.48633 -8.55574,-18.32971 -3.87205,-2.57132 -8.3812,-2.88633 -12.89242,-2.87635 z m -116.85696,6.07663 c -2.79432,6.64908 -5.58899,13.29806 -8.3833,19.94713 h 16.52533 c -2.71405,-6.64907 -5.42798,-13.29805 -8.14203,-19.94713 z"
       id="rect935"
       inkscape:export-xdpi="27.360001"
       inkscape:export-ydpi="27.360001"
       inkscape:connector-curvature="0" />
  </g>
</svg>
