<?xml version="1.0" encoding="UTF-8" standalone="no"?>
<!-- Created with Inkscape (http://www.inkscape.org/) -->

<svg
   xmlns:dc="http://purl.org/dc/elements/1.1/"
   xmlns:cc="http://creativecommons.org/ns#"
   xmlns:rdf="http://www.w3.org/1999/02/22-rdf-syntax-ns#"
   xmlns:svg="http://www.w3.org/2000/svg"
   xmlns="http://www.w3.org/2000/svg"
   xmlns:xlink="http://www.w3.org/1999/xlink"
   xmlns:sodipodi="http://sodipodi.sourceforge.net/DTD/sodipodi-0.dtd"
   xmlns:inkscape="http://www.inkscape.org/namespaces/inkscape"
   width="600mm"
   height="800mm"
   viewBox="0 0 600 800"
   version="1.1"
   id="svg8"
   inkscape:version="0.92.4 (5da689c313, 2019-01-14)"
   sodipodi:docname="keep-calm-template.svg">
  <defs
     id="defs2">
    <linearGradient
       inkscape:collect="always"
       id="linearGradient1478">
      <stop
         style="stop-color:#000000;stop-opacity:0"
         offset="0"
         id="stop1474" />
      <stop
         style="stop-color:#000000;stop-opacity:0.6"
         offset="1"
         id="stop1476" />
    </linearGradient>
    <filter
       style="color-interpolation-filters:sRGB"
       inkscape:label="Invert"
       id="filter914">
      <feColorMatrix
         values="1 0 0 0 0 0 1 0 0 0 0 0 1 0 0 -0.21 -0.72 -0.07 2 0 "
         result="color2"
         id="feColorMatrix912" />
    </filter>
    <radialGradient
       inkscape:collect="always"
       xlink:href="#linearGradient1478"
       id="radialGradient1480"
       cx="300"
       cy="-103"
       fx="300"
       fy="-103"
       r="300"
       gradientTransform="matrix(1.6356328,5.9219192e-4,-6.2948529e-4,1.7387475,-190.7547,75.913342)"
       gradientUnits="userSpaceOnUse" />
  </defs>
  <sodipodi:namedview
     id="base"
     pagecolor="#ffffff"
     bordercolor="#666666"
     borderopacity="1.0"
     inkscape:pageopacity="0.0"
     inkscape:pageshadow="2"
     inkscape:zoom="0.15114323"
     inkscape:cx="1133.8583"
     inkscape:cy="948.84817"
     inkscape:document-units="mm"
     inkscape:current-layer="layer1"
     showgrid="false"
     showguides="true"
     inkscape:guide-bbox="true"
     inkscape:window-width="1366"
     inkscape:window-height="705"
     inkscape:window-x="0"
     inkscape:window-y="34"
     inkscape:window-maximized="1">
    <sodipodi:guide
       position="-106.74278,-266.34511"
       orientation="0,1"
       id="guide1389"
       inkscape:locked="false" />
  </sodipodi:namedview>
  <metadata
     id="metadata5">
    <rdf:RDF>
      <cc:Work
         rdf:about="">
        <dc:format>image/svg+xml</dc:format>
        <dc:type
           rdf:resource="http://purl.org/dc/dcmitype/StillImage" />
        <dc:title></dc:title>
      </cc:Work>
    </rdf:RDF>
  </metadata>
  <g
     inkscape:label="Layer 1"
     inkscape:groupmode="layer"
     id="layer1"
     transform="translate(0,503)">
    <rect
       style="opacity:1;fill:url(#radialGradient1480);fill-opacity:1;stroke:none;stroke-width:0.46499997;stroke-linecap:square;stroke-linejoin:miter;stroke-miterlimit:4;stroke-dasharray:none;stroke-dashoffset:0;stroke-opacity:1"
       id="rect1470"
       width="600"
       height="800"
       x="0"
       y="-503" />
    <path
       style="fill:#ffffff;stroke-width:0.99999994"
       d="m 299.95374,-425.63849 c -2.51466,0 -4.57233,0.11229 -4.57233,0.24956 0,0.13736 0.56289,1.90257 1.25161,3.9228 0.68826,2.02018 1.07032,3.85408 0.8488,4.07559 -0.22143,0.22152 -1.6575,0.0562 -3.19166,-0.36723 l -2.78933,-0.77005 v 3.78427 3.78379 l 3.20209,-1.12968 c 1.76122,-0.62126 3.33306,-1.13015 3.49297,-1.13015 0.15912,0 0.28988,1.2226 0.28988,2.71674 0,1.77797 -0.36605,2.71674 -1.05945,2.71674 -1.88719,0 -5.01772,3.06292 -5.53407,5.41497 -0.69497,3.16416 0.9981,6.33583 4.26584,7.99175 l 4.9e-4,-4.9e-4 c 5.76081,2.91926 12.71386,-1.99462 11.23892,-7.94287 -0.57766,-2.32974 -3.31811,-5.46384 -4.77778,-5.46384 -0.65846,0 -1.0291,-0.97775 -1.0291,-2.71626 0,-1.49414 0.13047,-2.71674 0.29036,-2.71674 0.15983,0 1.73174,0.50802 3.49295,1.12968 l 3.20212,1.12967 v -3.78378 -3.7838 l -2.78934,0.77005 c -1.53415,0.42743 -2.96483,0.59501 -3.17933,0.38052 -0.21395,-0.21442 0.12944,-2.16093 0.76434,-4.32563 l 1.15389,-3.93561 z m -2.02877,19.78436 c 0.49445,-0.0231 0.56079,0.59624 0.5608,2.30966 -3e-5,2.35657 -0.25535,2.74331 -1.81099,2.74331 -0.99613,0 -2.03124,-0.21977 -2.30112,-0.48965 -0.72749,-0.72748 0.82088,-3.23644 2.57773,-4.17664 0.43566,-0.23316 0.74881,-0.37618 0.97358,-0.38668 z m 4.2108,8.2e-4 c 0.21366,-2.7e-4 0.50866,0.12845 0.9157,0.34635 1.63439,0.87459 2.65299,2.92469 1.98845,4.00014 -0.24008,0.38844 -1.11433,0.706 -1.9429,0.706 -1.20703,0 -1.5064,-0.54517 -1.5064,-2.74379 0,-1.68192 0.0751,-2.30813 0.54515,-2.3087 z m -17.13025,5.9084 c -0.72965,-0.0298 -1.49715,0.44066 -2.37275,1.40819 -1.04909,1.15944 -1.163,1.82974 -0.51716,3.037 0.45598,0.85213 1.26996,1.70273 1.80814,1.8907 v 4.8e-4 c 2.79462,0.97436 4.98058,-2.23924 3.22679,-4.74315 -0.72348,-1.033 -1.41538,-1.56337 -2.14502,-1.59322 z m 29.43053,0.33592 c -0.35299,-0.0135 -0.71249,0.0983 -1.1292,0.32121 -2.23536,1.19634 -2.53432,3.01207 -0.7838,4.76258 1.82548,1.82526 2.8529,1.677 4.38729,-0.63386 0.9749,-1.46817 0.91717,-1.82377 -0.53329,-3.27423 -0.78295,-0.78276 -1.35267,-1.15315 -1.941,-1.1757 z m -14.79735,0.3677 c 1.44106,-0.0253 2.9376,0.12279 3.86018,0.47683 1.15716,0.44319 1.15247,0.60676 -0.0545,1.94052 h -0.002 c -0.72494,0.8012 -2.24473,1.4566 -3.37766,1.4566 -2.5277,0 -5.12011,-1.77204 -4.36976,-2.98672 0.3306,-0.53526 2.09138,-0.85463 3.94416,-0.88723 z m -24.07344,1.96046 c -0.6694,0.004 -1.36345,0.24835 -1.98134,0.80752 -1.86943,1.69171 -1.86266,2.28314 0.047,4.19278 v 4.6e-4 c 1.65771,1.65755 3.54302,1.38802 4.59132,-0.65616 1.13955,-2.22226 -0.64877,-4.35879 -2.65695,-4.3446 z m 48.12221,0 c -0.66938,0.004 -1.36297,0.24835 -1.98084,0.80752 -1.86944,1.69171 -1.86266,2.28314 0.047,4.19278 v 4.6e-4 c 1.65769,1.65755 3.54302,1.38802 4.59131,-0.65616 1.13956,-2.22226 -0.64924,-4.35879 -2.65743,-4.3446 z m -56.65057,2.76561 c -0.70409,0.0111 -1.41358,0.48059 -2.25604,1.4115 -1.04908,1.15937 -1.163,1.83013 -0.51716,3.03748 0.45605,0.85213 1.26996,1.72653 1.80816,1.94337 l -0.002,-0.001 c 1.61363,0.65004 1.97838,0.57135 3.2524,-0.70266 1.55659,-1.55405 1.5411,-2.57399 -0.0627,-4.34603 -0.8195,-0.90462 -1.5178,-1.35274 -2.22189,-1.34177 z m 66.07376,1.14581 c -0.72567,-0.0333 -1.46442,0.2128 -2.08808,0.77716 -1.87451,1.69451 -1.86525,2.28243 0.0627,4.21032 h 0.002 c 1.87164,1.87204 2.61546,1.93078 4.21318,0.33307 1.39306,-1.39344 1.37975,-1.33997 0.74015,-3.00758 -0.5473,-1.42644 -1.72079,-2.25758 -2.93025,-2.31297 z m -33.13747,1.1069 c -0.98613,0 -3.03984,2.35995 -3.03984,3.49295 0,0.57938 0.54904,1.60186 1.21983,2.27264 0.67078,0.67064 1.51921,1.21984 1.88502,1.21984 0.95245,0 3.10484,-2.28289 3.10484,-3.2932 0,-1.00751 -2.30499,-3.69223 -3.16985,-3.69223 z m 9.04126,0.15183 c -0.0521,0.004 -0.0876,0.0145 -0.10539,0.0323 -0.70627,0.70627 -4.21364,14.32216 -4.21364,16.35737 0,3.43092 1.07617,1.81923 3.0128,-4.51114 0.91414,-2.98827 2.09942,-6.2046 2.63371,-7.14768 l 0.97121,-1.71469 8.13977,2.72908 c 10.70147,3.58847 20.50871,8.5341 29.05383,14.65074 3.81881,2.73346 7.2865,4.75806 7.70612,4.49832 1.56465,-0.96703 -12.61776,-10.99984 -22.77059,-16.10828 -5.10023,-2.5662 -22.80977,-8.90835 -24.42787,-8.78597 z m -19.15667,0.40139 c -0.80459,0.0325 -2.21014,0.39336 -4.79438,1.10548 -7.10021,1.95659 -18.31211,6.40687 -23.83384,9.46019 -8.65262,4.78458 -18.1397,11.8484 -17.43771,12.98398 v 4.8e-4 c 0.21894,0.35434 3.79537,-1.66488 7.94762,-4.48694 8.89618,-6.04621 17.79516,-10.38448 28.5063,-13.89636 9.19447,-3.01464 8.77276,-3.25224 11.3191,6.38667 1.7233,6.52348 3.04032,8.41663 3.04032,4.37116 0,-1.76713 -1.56737,-8.39781 -3.55984,-15.06115 -0.17952,-0.60043 -0.38296,-0.89604 -1.18757,-0.86351 z m -30.95686,1.77542 c -0.36591,0 -1.21423,0.54904 -1.88501,1.21982 -0.67056,0.67078 -1.21935,1.51873 -1.21935,1.88455 0,0.36589 0.54855,1.21422 1.21935,1.88501 0.67085,0.67055 1.51918,1.21983 1.88501,1.21983 0.36596,0 1.21422,-0.54904 1.88501,-1.21983 0.67065,-0.67087 1.21984,-1.5192 1.21984,-1.88501 0,-0.36597 -0.54905,-1.21377 -1.21984,-1.88455 -0.67079,-0.67062 -1.5192,-1.21982 -1.88501,-1.21982 z m 81.49835,0.77573 c -0.86228,0 -3.10485,2.24257 -3.10485,3.10484 0,0.36589 0.54905,1.21423 1.21983,1.88502 0.6708,0.67056 1.51919,1.21983 1.88502,1.21983 0.86219,0 3.10436,-2.24265 3.10436,-3.10485 0,-0.86227 -2.24217,-3.10484 -3.10436,-3.10484 z m -88.50939,3.94701 c -0.41961,0.0363 -0.83475,0.32849 -1.37167,0.86541 -1.22721,1.22753 -1.17549,1.81842 0.28848,3.28228 1.60645,1.60677 2.43584,1.53887 3.4085,-0.27851 0.60502,-1.13112 0.50295,-1.79721 -0.41658,-2.71674 -0.82259,-0.82272 -1.36925,-1.19909 -1.90873,-1.15244 z m 95.84211,1.198 c -0.37843,0.004 -0.77811,0.10361 -1.1776,0.31741 -1.81713,0.97265 -1.88503,1.80157 -0.2785,3.40802 1.60646,1.60678 2.43538,1.53886 3.40802,-0.2785 0.92646,-1.73112 -0.31204,-3.46805 -1.95192,-3.44693 z m -48.15686,0.64954 c -0.21811,-0.002 -0.44138,0.0347 -0.66377,0.12004 -1.68322,0.64589 -2.03199,2.45826 -0.72497,3.76527 v 4.8e-4 c 1.57346,1.57315 2.40757,1.49589 3.37529,-0.31219 0.828,-1.54706 -0.45975,-3.55338 -1.98655,-3.5736 z m -53.89683,2.7433 c -0.38142,0 -1.05402,0.67467 -1.49551,1.4988 -0.60269,1.12568 -0.50746,1.7931 0.3829,2.68353 h 4.9e-4 c 1.30567,1.30553 3.11801,0.95564 3.76384,-0.72686 0.42182,-1.09916 -1.38645,-3.45547 -2.65172,-3.45547 z m 107.97539,1.17333 c -0.14108,0.007 -0.27903,0.0336 -0.41041,0.084 -1.66785,0.64006 -2.03643,2.45432 -0.75819,3.73255 1.27825,1.27839 3.09218,0.90982 3.73257,-0.75819 0.48735,-1.26994 -1.2002,-3.1222 -2.56397,-3.05834 z m -53.61502,1.98701 c -0.34463,0 -0.6896,0.30103 -1.29194,0.90338 -1.06702,1.06694 -1.11813,1.50124 -0.29322,2.49517 h 4.8e-4 c 0.54918,0.66189 1.26255,1.20321 1.58468,1.20321 0.3223,0 1.03559,-0.54179 1.5847,-1.20321 0.82467,-0.99393 0.77379,-1.42823 -0.29323,-2.49517 -0.60235,-0.60235 -0.94683,-0.90338 -1.29147,-0.90338 z m -34.84978,0.0707 c -0.35675,0.002 -0.65117,0.37366 -1.15245,1.04 -1.99239,2.64805 -3.02749,8.3937 -2.11086,11.71339 0.44772,1.62042 0.69368,3.0664 0.54705,3.21303 -0.14672,0.14664 -1.12665,-0.1246 -2.17729,-0.60353 -2.97004,-1.35318 -7.89926,0.28549 -10.08789,3.35395 -2.37974,3.33677 -2.55589,11.19071 -0.30649,13.67621 2.09105,2.31054 2.52753,2.07191 3.0275,-1.65681 0.50956,-3.79939 2.72296,-6.02323 5.99476,-6.02323 3.236,0 4.56659,0.72158 5.82775,3.16036 4.08564,7.90078 -3.10744,16.14504 -13.34552,15.29602 -5.30429,-0.43992 -9.1459,-3.34615 -12.1366,-9.18123 -2.07374,-4.0453 -2.10135,-4.24039 -0.63483,-4.47126 0.84333,-0.13261 2.64909,0.33632 4.01297,1.04142 l 2.47997,1.28245 -0.54988,-3.75816 c -0.30266,-2.06681 -0.90624,-5.44803 -1.34225,-7.51397 l -0.79232,-3.75627 -2.05487,1.9149 c -1.13045,1.05322 -2.84138,2.31979 -3.80183,2.81353 -2.2679,1.16669 -2.30399,-0.0124 -0.16561,-5.43775 0.86916,-2.20579 1.40217,-4.1893 1.18379,-4.4077 -0.36222,-0.36223 -9.75008,1.34341 -9.75008,1.77163 0,0.1015 0.55775,1.71273 1.24021,3.58071 0.68227,1.86799 1.20188,5.19387 1.14725,7.39109 -0.0758,3.24865 0.28307,4.44225 1.91963,6.38713 1.10689,1.31544 2.85298,5.10585 3.88061,8.42351 1.58195,5.10812 1.79564,6.99064 1.39393,12.2908 l -0.47395,6.25902 5.21759,4.33085 5.21616,4.32941 4.6402,-1.88548 c 12.31205,-5.00283 28.80663,-7.54498 48.77697,-7.52157 19.46157,0.0244 34.92868,2.52539 47.69142,7.71135 l 4.69998,1.90968 2.12366,-2.54688 c 1.16795,-1.40093 3.0362,-3.83825 4.1515,-5.41592 2.00043,-2.83001 2.01301,-2.93407 0.9527,-7.76164 -1.07459,-4.89236 -1.07413,-4.89446 1.5842,-11.10276 1.46233,-3.41509 3.48293,-7.19638 4.49074,-8.40309 1.17021,-1.40101 1.83284,-3.19078 1.83284,-4.95144 0,-1.51644 0.85613,-5.13133 1.90304,-8.03349 l 1.9035,-5.27691 -3.882,-0.83267 c -6.13653,-1.31607 -5.93507,-1.48354 -5.2323,4.35504 0.34399,2.8531 0.42923,5.38285 0.18979,5.6223 -0.23939,0.23938 -1.80102,-1.02835 -3.47019,-2.8178 l -3.03463,-3.25381 -1.22931,4.42241 c -0.67601,2.4323 -1.67781,6.03987 -2.22615,8.01689 l -0.99731,3.59448 4.2535,-1.88074 c 2.33932,-1.03434 4.39941,-1.73484 4.57803,-1.55622 0.4538,0.45379 -2.46849,7.97441 -4.01674,10.33745 -1.4486,2.2108 -6.758,4.88627 -9.75151,4.90968 -3.58832,0.0306 -9.18248,-2.38515 -11.27119,-4.86745 -1.77225,-2.10183 -1.98989,-2.95251 -1.69428,-6.51618 0.3977,-4.79542 2.19879,-7.22739 5.35234,-7.22739 2.7465,0 4.03511,2.22442 3.64668,6.29555 -0.15834,1.66027 0.0294,3.0185 0.41704,3.0185 1.43649,0 5.91963,-5.5949 6.77762,-8.45862 0.73731,-2.461 0.66544,-3.42779 -0.42655,-5.72906 -2.29144,-4.82873 -7.79784,-6.29601 -11.48279,-3.05977 -0.74971,0.65846 -1.49953,1.0542 -1.66723,0.87869 -0.1674,-0.17526 0.21595,-2.43417 0.85164,-5.01927 1.14828,-4.66922 0.71739,-8.87806 -1.21509,-11.87328 -2.17156,-3.36578 -8.4291,6.88417 -7.55192,12.37004 l 0.50292,3.14517 -2.54024,-1.90304 c -3.39705,-2.54541 -5.39639,-3.06342 -8.0017,-2.07291 -2.67082,1.01546 -3.98587,2.72036 -4.60128,5.96393 -0.44927,2.36896 1.20029,7.99648 2.34382,7.99648 0.28057,0 1.19686,-0.87327 2.03636,-1.94053 3.08866,-3.92652 8.3993,-1.5846 8.3993,3.70409 0,5.63993 -5.37872,9.88088 -12.5247,9.87628 -7.35197,-0.006 -11.53688,-4.22319 -11.53688,-11.62798 v -3.14281 l 3.88105,1.96664 3.88106,1.96662 v -7.38682 c 0,-4.0627 -0.16411,-7.38682 -0.36534,-7.38682 -0.20101,0 -1.94216,1.11169 -3.86917,2.47003 -1.92705,1.35819 -3.69275,2.27971 -3.92519,2.04728 -0.23205,-0.23197 0.46074,-2.86973 1.54008,-5.86191 1.07934,-2.99226 1.96283,-5.66049 1.96283,-5.9288 0,-0.26833 -3.14385,-0.48822 -6.98591,-0.48822 -3.84204,0 -6.98543,0.11469 -6.98543,0.25431 0,0.13985 0.87329,2.40326 1.94054,5.02972 1.06725,2.62651 1.94052,5.346 1.94052,6.04409 0,1.1476 -0.2045,1.13695 -2.13457,-0.11149 -1.17396,-0.75932 -2.92057,-1.88773 -3.88106,-2.50703 l -1.74599,-1.12637 v 7.4205 7.42003 l 4.18565,-1.85134 c 2.30228,-1.01834 4.39831,-1.63914 4.65727,-1.38018 0.86827,0.86805 0.483,4.99812 -0.69651,7.46841 -2.56108,5.36397 -11.55779,8.27085 -18.50333,5.97863 -4.02019,-1.32684 -7.49498,-5.59566 -7.49498,-9.20824 0,-4.3549 1.83182,-6.49367 5.31297,-6.20353 2.33324,0.19445 3.04349,0.68131 4.00108,2.74094 1.32715,2.85646 2.01668,2.86795 4.10547,0.0702 3.00778,-4.02856 1.26168,-10.37354 -3.38429,-12.29792 -2.04505,-0.84714 -2.75785,-0.72217 -6.25951,1.09458 l -3.95175,2.05012 0.50957,-2.71389 c 0.69582,-3.70922 -0.73452,-8.50535 -3.4289,-11.49894 -1.23795,-1.3754 -1.79975,-1.98234 -2.25841,-1.97942 z m -24.13939,2.25794 c -0.34465,0 -0.68956,0.30102 -1.29197,0.90337 -1.06701,1.06701 -1.11811,1.50074 -0.2932,2.49468 h 4.9e-4 c 0.54917,0.6619 1.26253,1.20323 1.58468,1.20323 0.32237,0 1.03556,-0.5418 1.58466,-1.20323 0.8247,-0.99394 0.77382,-1.42767 -0.2932,-2.49468 -0.60235,-0.60235 -0.94684,-0.90337 -1.29146,-0.90337 z m 117.97788,0.77573 c -0.34463,0 -0.68914,0.3015 -1.29147,0.90385 -1.06703,1.06701 -1.11811,1.50075 -0.29322,2.49469 h 4.8e-4 c 0.54919,0.66189 1.26254,1.20322 1.58468,1.20322 0.32236,0 1.03559,-0.5418 1.5847,-1.20322 0.82467,-0.99394 0.77371,-1.42768 -0.29322,-2.49469 -0.60235,-0.60235 -0.94732,-0.90385 -1.29195,-0.90385 z m -59.18133,15.57783 c 0.12301,0.001 0.2509,0.0112 0.38287,0.03 1.28028,0.18173 1.7498,0.76677 1.7498,2.17823 0,2.2646 -2.00269,2.97072 -3.45688,1.2184 -1.32099,-1.59161 -0.52093,-3.44758 1.32421,-3.42653 z m -67.07819,4.89259 c 1.07852,0.0593 2.84788,2.92918 2.84815,4.87269 -3e-4,2.17755 -1.96358,2.3473 -3.07732,0.26616 -0.99925,-1.8672 -1.04091,-4.46935 -0.0806,-5.06293 0.0941,-0.0581 0.19824,-0.0821 0.30982,-0.0759 z m 132.88436,0.43082 c 1.33721,0 1.53425,3.23984 0.33306,5.48424 h 4.8e-4 c -1.17566,2.19714 -3.07732,1.89399 -3.07732,-0.49011 0,-2.6029 1.31369,-4.99413 2.74378,-4.99413 z m -65.89823,16.29999 c 0.51347,0 1.67769,1.20354 2.58674,2.67451 l 1.65302,2.67451 -1.60557,3.14659 c -0.88295,1.73078 -1.91955,3.14707 -2.30255,3.14707 -0.84635,0 -3.92849,-4.84993 -3.92849,-6.18169 0,-1.5414 2.58172,-5.46099 3.59685,-5.46099 z m 12.58354,1.55194 c 1.92455,0 3.38275,1.78922 2.76656,3.39474 -0.6087,1.58618 -4.09572,1.65919 -4.69475,0.0982 -0.67944,-1.77041 0.27127,-3.49296 1.92819,-3.49296 z m -40.53518,0.0214 c 6.5121,0.096 10.30661,6.99829 3.91142,10.89781 -5.24034,3.19528 -12.9318,0.9103 -12.9318,-3.84169 0,-2.40921 2.32703,-5.26589 5.17015,-6.34679 1.34489,-0.51134 2.64428,-0.7271 3.85023,-0.70933 z m 14.84621,0.0873 c 0.12526,0.001 0.25406,0.0128 0.38527,0.0313 1.28261,0.18213 1.74978,0.76614 1.74978,2.18868 0,1.42215 -0.46703,2.00664 -1.74978,2.18914 -1.90707,0.27082 -2.99058,-1.39364 -2.21762,-3.40754 0.24542,-0.63942 0.95549,-1.01706 1.83235,-1.00158 z m 41.01393,0.14708 c 2.29664,0.009 4.50636,0.88132 6.54607,2.59766 2.83031,2.38184 3.05706,5.51303 0.56318,7.77777 -2.44286,2.21807 -5.11313,2.63948 -8.73142,1.37782 -7.02383,-2.44908 -7.94811,-9.12021 -1.55575,-11.22992 1.07187,-0.35374 2.13398,-0.52758 3.17792,-0.52333 z m 17.51646,4.69998 c 1.96413,-0.042 3.53542,2.91819 1.69333,4.76022 -1.39391,1.394 -1.9971,1.43511 -3.21302,0.2192 -1.24345,-1.24314 -1.17984,-3.32938 0.13427,-4.42004 0.45803,-0.38014 0.93215,-0.54969 1.38542,-0.55938 z m -93.39252,0.58453 c 0.23096,-0.007 0.48914,0.009 0.77812,0.0421 1.72697,0.19976 2.06768,0.62302 2.06768,2.56775 0,1.76963 -0.38883,2.3842 -1.62027,2.5597 -2.1115,0.3017 -3.69558,-1.6471 -3.03414,-3.73207 0.31418,-0.99003 0.80782,-1.41056 1.80861,-1.43761 z m 35.7821,1.52158 c 1.86872,-0.0572 3.26872,2.14304 2.32199,3.91189 -0.91554,1.71059 -3.68913,1.92086 -4.30142,0.32595 -0.7278,-1.89668 0.0337,-3.89375 1.59986,-4.19561 0.1282,-0.0247 0.25499,-0.0384 0.37957,-0.0422 z m 23.6398,0.31219 c 2.79277,0 4.32383,2.04557 2.8548,3.81559 -2.01048,2.42248 -5.78519,1.04035 -5.36088,-1.96283 0.20717,-1.46497 0.73154,-1.85276 2.50608,-1.85276 z m 46.19736,0.88248 0.81085,2.1327 c 0.44568,1.17294 0.80064,2.54597 0.79328,3.05217 -0.01,0.50581 -0.67808,1.77974 -1.48599,2.83108 l -1.46892,1.91159 -1.38495,-2.90367 -1.38445,-2.90367 2.06008,-2.0601 z m -117.2681,1.05953 c 1.67752,0 4.01628,3.758 4.01628,6.45356 0,3.32234 -0.6346,3.54971 -2.96964,1.06421 -1.66213,-1.76957 -2.46264,-7.51777 -1.04664,-7.51777 z m 102.98648,2.86429 c 1.40065,0.0286 2.70819,1.10449 2.70819,2.56871 0,0.82382 -0.62015,1.83005 -1.37829,2.23564 -3.05043,1.63251 -5.73326,-2.77129 -2.71673,-4.45942 0.44259,-0.24768 0.91994,-0.35447 1.38683,-0.34493 z m -88.49184,0.62865 c 2.56546,0 3.5255,1.9706 1.90922,3.91808 -0.5144,0.62 -1.37336,1.12683 -1.90922,1.12683 -1.43767,0 -2.88439,-2.04931 -2.5763,-3.64952 0.18681,-0.97046 0.97258,-1.39539 2.5763,-1.39539 z m 49.5494,6.01992 c -10.98183,-0.008 -22.75615,0.85046 -32.60561,2.5502 -7.15535,1.23486 -19.57634,4.69811 -20.70053,5.77177 -0.77454,0.73966 4.36085,2.5047 13.4589,4.62595 6.47574,1.50988 18.74167,2.96512 28.71838,3.40658 v -4.6e-4 c 2.77487,0.12323 6.79153,0.29042 8.92595,0.37149 6.09957,0.23212 23.88141,-1.30268 29.99705,-2.5891 5.55552,-1.16866 15.91812,-4.49558 16.82376,-5.40121 1.21139,-1.2114 -7.51034,-4.23502 -19.26675,-6.67892 -6.58857,-1.36962 -15.6613,-2.04975 -25.35115,-2.0563 z"
       id="path1012"
       inkscape:connector-curvature="0" />
    <g
       style="stroke-width:0.88734835;fill:#ffffff"
       id="g1412"
       transform="matrix(1.1269531,0,0,1.1269531,2.9186521,-454.64137)">
      <text
         id="text1035"
         y="235.20285"
         x="260.98923"
         style="font-style:normal;font-variant:normal;font-weight:normal;font-stretch:normal;font-size:89.49571991px;line-height:1.25;font-family:'stephenson blake';-inkscape-font-specification:'stephenson blake';font-variant-ligatures:normal;font-variant-caps:normal;font-variant-numeric:normal;font-feature-settings:normal;text-align:center;letter-spacing:-3.96875px;word-spacing:0px;writing-mode:lr-tb;text-anchor:middle;opacity:1;vector-effect:none;fill:#ffffff;fill-opacity:1;stroke:none;stroke-width:0.2347775px;stroke-linecap:butt;stroke-linejoin:miter;stroke-miterlimit:4;stroke-dasharray:none;stroke-dashoffset:0;stroke-opacity:1"
         xml:space="preserve"><tspan
           style="font-style:normal;font-variant:normal;font-weight:bold;font-stretch:normal;font-family:'Josefin Sans';-inkscape-font-specification:'Josefin Sans Bold';letter-spacing:-3.96875px;stroke-width:0.2347775px;fill:#ffffff"
           y="235.20285"
           x="259.00485"
           id="tspan1033"
           sodipodi:role="line">KEEP</tspan></text>
      <text
         id="text1035-3"
         y="318.99313"
         x="265.6528"
         style="font-style:normal;font-variant:normal;font-weight:normal;font-stretch:normal;font-size:89.49572754px;line-height:1.25;font-family:'stephenson blake';-inkscape-font-specification:'stephenson blake';font-variant-ligatures:normal;font-variant-caps:normal;font-variant-numeric:normal;font-feature-settings:normal;text-align:center;letter-spacing:0px;word-spacing:0px;writing-mode:lr-tb;text-anchor:middle;opacity:1;vector-effect:none;fill:#ffffff;fill-opacity:1;stroke:none;stroke-width:0.2347775px;stroke-linecap:butt;stroke-linejoin:miter;stroke-miterlimit:4;stroke-dasharray:none;stroke-dashoffset:0;stroke-opacity:1"
         xml:space="preserve"><tspan
           style="font-style:normal;font-variant:normal;font-weight:bold;font-stretch:normal;font-family:'Josefin Sans';-inkscape-font-specification:'Josefin Sans Bold';letter-spacing:-3.96875px;stroke-width:0.2347775px;fill:#ffffff"
           y="318.99313"
           x="263.66843"
           id="tspan1033-6"
           sodipodi:role="line">CALM</tspan></text>
      <text
         id="text1035-3-7"
         y="379.79337"
         x="264.33545"
         style="font-style:normal;font-variant:normal;font-weight:normal;font-stretch:normal;font-size:42.75362396px;line-height:1.25;font-family:'stephenson blake';-inkscape-font-specification:'stephenson blake';font-variant-ligatures:normal;font-variant-caps:normal;font-variant-numeric:normal;font-feature-settings:normal;text-align:center;letter-spacing:0px;word-spacing:0px;writing-mode:lr-tb;text-anchor:middle;opacity:1;vector-effect:none;fill:#ffffff;fill-opacity:1;stroke:none;stroke-width:0.2347775px;stroke-linecap:butt;stroke-linejoin:miter;stroke-miterlimit:4;stroke-dasharray:none;stroke-dashoffset:0;stroke-opacity:1"
         xml:space="preserve"><tspan
           style="font-style:normal;font-variant:normal;font-weight:bold;font-stretch:normal;font-family:'Josefin Sans';-inkscape-font-specification:'Josefin Sans Bold';letter-spacing:-2.64583325px;stroke-width:0.2347775px;fill:#ffffff"
           y="379.79337"
           x="263.01254"
           id="tspan1033-6-5"
           sodipodi:role="line">AND</tspan></text>
      <text
         id="text1035-3-3"
         y="480.23575"
         x="261.8786"
         style="font-style:normal;font-variant:normal;font-weight:normal;font-stretch:normal;font-size:89.49573517px;line-height:1.25;font-family:'stephenson blake';-inkscape-font-specification:'stephenson blake';font-variant-ligatures:normal;font-variant-caps:normal;font-variant-numeric:normal;font-feature-settings:normal;text-align:center;letter-spacing:0px;word-spacing:0px;writing-mode:lr-tb;text-anchor:middle;opacity:1;vector-effect:none;fill:#ffffff;fill-opacity:1;stroke:none;stroke-width:0.2347775px;stroke-linecap:butt;stroke-linejoin:miter;stroke-miterlimit:4;stroke-dasharray:none;stroke-dashoffset:0;stroke-opacity:1"
         xml:space="preserve"><tspan
           style="font-style:normal;font-variant:normal;font-weight:bold;font-stretch:normal;font-family:'Josefin Sans';-inkscape-font-specification:'Josefin Sans Bold';letter-spacing:-3.96875px;stroke-width:0.2347775px;fill:#ffffff"
           y="480.23575"
           x="259.89423"
           id="tspan1033-6-56"
           sodipodi:role="line">LOVE</tspan></text>
      <text
         id="text1035-3-3-2"
         y="564.315"
         x="261.67792"
         style="font-style:normal;font-variant:normal;font-weight:normal;font-stretch:normal;font-size:89.49573517px;line-height:1.25;font-family:'stephenson blake';-inkscape-font-specification:'stephenson blake';font-variant-ligatures:normal;font-variant-caps:normal;font-variant-numeric:normal;font-feature-settings:normal;text-align:center;letter-spacing:0px;word-spacing:0px;writing-mode:lr-tb;text-anchor:middle;opacity:1;vector-effect:none;fill:#ffffff;fill-opacity:1;stroke:none;stroke-width:0.2347775px;stroke-linecap:butt;stroke-linejoin:miter;stroke-miterlimit:4;stroke-dasharray:none;stroke-dashoffset:0;stroke-opacity:1"
         xml:space="preserve"><tspan
           style="font-style:normal;font-variant:normal;font-weight:bold;font-stretch:normal;font-family:'Josefin Sans';-inkscape-font-specification:'Josefin Sans Bold';stroke-width:0.2347775px;fill:#ffffff"
           y="564.315"
           x="261.67792"
           id="tspan1033-6-56-9"
           sodipodi:role="line">ENGLAND</tspan></text>
    </g>
  </g>
</svg>
